<?xml version="1.0" encoding="UTF-8"?>
<svg width="59px" height="57px" viewBox="0 0 59 57" version="1.1" xmlns="http://www.w3.org/2000/svg" xmlns:xlink="http://www.w3.org/1999/xlink">
    <!-- Generator: Sketch 51.3 (57544) - http://www.bohemiancoding.com/sketch -->
    <title>021 - Scan Barcode</title>
    <desc>Created with Sketch.</desc>
    <defs></defs>
    <g id="Page-1" stroke="none" stroke-width="1" fill="none" fill-rule="evenodd">
        <g id="021---Scan-Barcode" fill-rule="nonzero">
            <path d="M50.615,38.4 L43.815,53.716 C43.4761882,54.4724677 43.0016934,55.1604851 42.415,55.746 L42.348,55.812 C41.590691,56.572032 40.5619239,56.9992433 39.489,56.9992433 C38.4160761,56.9992433 37.387309,56.572032 36.63,55.812 L36.306,55.488 C35.4504234,54.6307826 35.0239705,53.4352967 35.1438495,52.2301154 C35.2637285,51.024934 35.9173245,49.9368803 36.925,49.265 L37.297,49.008 C38.1115532,48.4766975 38.7678935,47.7357239 39.197,46.863 C39.9779528,45.2966095 39.9779528,43.4543905 39.197,41.888 C38.9133716,41.3143478 39.0285683,40.6235705 39.483,40.173 C39.5938867,40.0629743 39.7227361,39.9726783 39.864,39.906 C40.2336575,39.7230655 40.5713396,39.4816228 40.864,39.191 C41.724467,38.3271986 42.1314496,37.1106908 41.964,35.903 L41.42,32.158 L50.615,38.4 Z" id="Shape" fill="#2C2F38"></path>
            <path d="M1,6 C0.44771525,6 6.76353751e-17,5.55228475 0,5 L0,3 C-2.02906125e-16,1.34314575 1.34314575,2.22044605e-16 3,0 L5,0 C5.55228475,2.22044605e-16 6,0.44771525 6,1 C6,1.55228475 5.55228475,2 5,2 L3,2 C2.44771525,2 2,2.44771525 2,3 L2,5 C2,5.55228475 1.55228475,6 1,6 Z" id="Shape" fill="#A5A5A4"></path>
            <path d="M5,26 L3,26 C1.34314575,26 2.02906125e-16,24.6568542 0,23 L0,21 C-6.76353751e-17,20.4477153 0.44771525,20 1,20 C1.55228475,20 2,20.4477153 2,21 L2,23 C2,23.5522847 2.44771525,24 3,24 L5,24 C5.55228475,24 6,24.4477153 6,25 C6,25.5522847 5.55228475,26 5,26 Z" id="Shape" fill="#A5A5A4"></path>
            <path d="M32,6 C31.4477153,6 31,5.55228475 31,5 L31,3 C31,2.44771525 30.5522847,2 30,2 L28,2 C27.4477153,2 27,1.55228475 27,1 C27,0.44771525 27.4477153,0 28,0 L30,0 C31.6568542,0 33,1.34314575 33,3 L33,5 C33,5.55228475 32.5522847,6 32,6 Z" id="Shape" fill="#A5A5A4"></path>
            <path d="M30,26 L28,26 C27.4477153,26 27,25.5522847 27,25 C27,24.4477153 27.4477153,24 28,24 L30,24 C30.5522847,24 31,23.5522847 31,23 L31,21 C31,20.4477153 31.4477153,20 32,20 C32.5522847,20 33,20.4477153 33,21 L33,23 C33,24.6568542 31.6568542,26 30,26 Z" id="Shape" fill="#A5A5A4"></path>
            <path d="M5,22 C4.44771525,22 4,21.5522847 4,21 L4,5 C4,4.44771525 4.44771525,4 5,4 C5.55228475,4 6,4.44771525 6,5 L6,21 C6,21.5522847 5.55228475,22 5,22 Z" id="Shape" fill="#2C2F38"></path>
            <path d="M9,22 C8.44771525,22 8,21.5522847 8,21 L8,5 C8,4.44771525 8.44771525,4 9,4 C9.55228475,4 10,4.44771525 10,5 L10,21 C10,21.5522847 9.55228475,22 9,22 Z" id="Shape" fill="#2C2F38"></path>
            <path d="M14,22 C13.4477153,22 13,21.5522847 13,21 L13,5 C13,4.44771525 13.4477153,4 14,4 C14.5522847,4 15,4.44771525 15,5 L15,21 C15,21.5522847 14.5522847,22 14,22 Z" id="Shape" fill="#2C2F38"></path>
            <path d="M17,22 C16.4477153,22 16,21.5522847 16,21 L16,5 C16,4.44771525 16.4477153,4 17,4 C17.5522847,4 18,4.44771525 18,5 L18,21 C18,21.5522847 17.5522847,22 17,22 Z" id="Shape" fill="#2C2F38"></path>
            <path d="M25,22 C24.4477153,22 24,21.5522847 24,21 L24,5 C24,4.44771525 24.4477153,4 25,4 C25.5522847,4 26,4.44771525 26,5 L26,21 C26,21.5522847 25.5522847,22 25,22 Z" id="Shape" fill="#2C2F38"></path>
            <path d="M22,22 C21.4477153,22 21,21.5522847 21,21 L21,5 C21,4.44771525 21.4477153,4 22,4 C22.5522847,4 23,4.44771525 23,5 L23,21 C23,21.5522847 22.5522847,22 22,22 Z" id="Shape" fill="#2C2F38"></path>
            <path d="M28,22 C27.4477153,22 27,21.5522847 27,21 L27,5 C27,4.44771525 27.4477153,4 28,4 C28.5522847,4 29,4.44771525 29,5 L29,21 C29,21.5522847 28.5522847,22 28,22 Z" id="Shape" fill="#2C2F38"></path>
            <ellipse id="Oval" fill="#71C285" cx="17" cy="42.058" rx="15" ry="14.942"></ellipse>
            <path d="M12.611,50 L7.379,44.763 C7.00375199,44.387904 6.79292707,43.8790734 6.79292707,43.3485 C6.79292707,42.8179266 7.00375199,42.309096 7.379,41.934 L8.086,41.227 C8.8669997,40.4462361 10.1330003,40.4462361 10.914,41.227 L14.025,44.338 C14.4154999,44.7283819 15.0485001,44.7283819 15.439,44.338 L23.051,36.727 C23.8319997,35.9462361 25.0980003,35.9462361 25.879,36.727 L26.586,37.434 C26.961248,37.809096 27.1720729,38.3179266 27.1720729,38.8485 C27.1720729,39.3790734 26.961248,39.887904 26.586,40.263 L16.854,50 C16.2913763,50.562719 15.5282375,50.8788593 14.7325,50.8788593 C13.9367625,50.8788593 13.1736237,50.562719 12.611,50 Z" id="Shape" fill="#4C8056"></path>
            <path d="M36.665,18.661 C36.3998052,18.6609434 36.1454927,18.5555494 35.958,18.368 L33.129,15.539 C32.7500278,15.1466211 32.7554476,14.5229152 33.1411814,14.1371814 C33.5269152,13.7514476 34.1506211,13.7460278 34.543,14.125 L37.372,16.954 C37.6579079,17.2399943 37.7434219,17.6700366 37.588678,18.0436546 C37.4339341,18.4172725 37.0693959,18.6609137 36.665,18.661 Z" id="Shape" fill="#C03A2B"></path>
            <circle id="Oval" fill="#C03A2B" cx="31.715" cy="12.711" r="3"></circle>
            <path d="M52.235,39.508 L39.391,30.774 C37.0662782,29.1928156 35.5677222,26.6573501 35.3035585,23.858298 C35.0393948,21.0592458 36.0371418,18.2881889 38.025,16.3 L38.54,15.785 C39.0663856,15.2588131 39.9196144,15.2588131 40.446,15.785 L58.21,33.549 C58.7690352,34.1099715 59.053591,34.8880974 58.9883317,35.6773695 C58.9230724,36.4666416 58.5145791,37.1874642 57.871,37.649 L55.318,39.472 C54.3988915,40.1272681 53.1691588,40.1416276 52.235,39.508 Z" id="Shape" fill="#5E5F62"></path>
            <path d="M40.907,22.9 C40.6418052,22.8999434 40.3874927,22.7945494 40.2,22.607 L39.493,21.9 C39.1140278,21.5076211 39.1194476,20.8839152 39.5051814,20.4981814 C39.8909152,20.1124476 40.5146211,20.1070278 40.907,20.486 L41.614,21.193 C41.8999079,21.4789943 41.9854219,21.9090366 41.830678,22.2826546 C41.6759341,22.6562725 41.3113959,22.8999137 40.907,22.9 Z" id="Shape" fill="#D1D4D1"></path>
            <path d="M48.686,30.681 C48.4208052,30.6809434 48.1664927,30.5755494 47.979,30.388 L43.029,25.438 C42.6500278,25.0456211 42.6554476,24.4219152 43.0411814,24.0361814 C43.4269152,23.6504476 44.0506211,23.6450278 44.443,24.024 L49.393,28.974 C49.6789079,29.2599943 49.7644219,29.6900366 49.609678,30.0636546 C49.4549341,30.4372725 49.0903959,30.6809137 48.686,30.681 Z" id="Shape" fill="#D1D4D1"></path>
        </g>
    </g>
</svg>