<?xml version="1.0" encoding="UTF-8"?>
<svg width="54px" height="60px" viewBox="0 0 54 60" version="1.1" xmlns="http://www.w3.org/2000/svg" xmlns:xlink="http://www.w3.org/1999/xlink">
    <!-- Generator: Sketch 51.3 (57544) - http://www.bohemiancoding.com/sketch -->
    <title>045 - Cash Analysis</title>
    <desc>Created with Sketch.</desc>
    <defs></defs>
    <g id="Page-1" stroke="none" stroke-width="1" fill="none" fill-rule="evenodd">
        <g id="045---Cash-Analysis" fill-rule="nonzero">
            <g id="Icons" transform="translate(1.000000, 1.000000)">
                <path d="M4,9 L5,9 L5,41 L0,41 L0,13 C-4.4408921e-16,10.790861 1.790861,9 4,9 Z" id="Shape" fill="#02A9F4"></path>
                <path d="M52,13 L52.0000004,41 L47,41 L47,9 L48,9 C48.3026278,9.00251077 48.6042022,9.03601904 48.9,9.1 C49.4980101,9.23668312 50.0560408,9.5105632 50.53,9.9 C51.4607764,10.6600646 52.0005282,11.7983167 52,13 Z" id="Shape" fill="#02A9F4"></path>
                <path d="M47,4 L47,41 L5,41 L5,4 C5,3.44771525 5.44771525,3 6,3 L46,3 C46.5522847,3 47,3.44771525 47,4 Z" id="Shape" fill="#DFC49C"></path>
                <path d="M44,4 L44,41 L5,41 L5,4 C5,3.44771525 5.44771525,3 6,3 L43,3 C43.5522847,3 44,3.44771525 44,4 Z" id="Shape" fill="#FFE0B2"></path>
                <path d="M35,9 C35,13.9705627 30.9705627,18 26,18 C25.4975784,18.0006098 24.9959346,17.9604783 24.5,17.88 C20.1691076,17.1449193 17.0001991,13.3928319 17.0001991,9 C17.0001991,4.60716808 20.1691076,0.855080729 24.5,0.12 C24.9959346,0.0395216934 25.4975784,-0.00060981226 26,-4.30212269e-16 C30.9705627,5.689893e-16 35,4.02943725 35,9 Z" id="Shape" fill="#FEC108"></path>
                <ellipse id="Oval" fill="#FFDC00" cx="24.5" cy="9" rx="7.5" ry="8.88"></ellipse>
                <rect id="Rectangle-path" fill="#37474F" x="21" y="47" width="10" height="5"></rect>
                <path d="M52,41 L52,43 C52,45.209139 50.209139,47 48,47 L4,47 C1.790861,47 0,45.209139 0,43 L0,41 L52,41 Z" id="Shape" fill="#37474F"></path>
                <path d="M49,41 L49,43 C49,45.209139 47.209139,47 45,47 L4,47 C1.790861,47 0,45.209139 0,43 L0,41 L49,41 Z" id="Shape" fill="#607D8B"></path>
                <path d="M38,57 C38,57.5522847 37.5522847,58 37,58 L15,58 C14.4477153,58 14,57.5522847 14,57 C13.9960001,55.6726954 14.5214997,54.3986004 15.4600501,53.4600501 C16.3986004,52.5214997 17.6726954,51.9960001 19,52 L33,52 C35.7614237,52 38,54.2385763 38,57 Z" id="Shape" fill="#37474F"></path>
                <path d="M35,57 C35,57.5522847 34.5522847,58 34,58 L15,58 C14.4477153,58 14,57.5522847 14,57 C13.9960001,55.6726954 14.5214997,54.3986004 15.4600501,53.4600501 C16.3986004,52.5214997 17.6726954,51.9960001 19,52 L30,52 C32.7614237,52 35,54.2385763 35,57 Z" id="Shape" fill="#607D8B"></path>
                <path d="M18,29 L18,37 L12,37 L12,29 C12,28.4477153 12.4477153,28 13,28 L17,28 C17.5522847,28 18,28.4477153 18,29 Z" id="Shape" fill="#BB193B"></path>
                <path d="M15,29 L15,37 L12,37 L12,29 C12,28.4477153 12.4477153,28 13,28 L14,28 C14.5522847,28 15,28.4477153 15,29 Z" id="Shape" fill="#EF314C"></path>
                <path d="M29,23 L29,37 L23,37 L23,23 C23,22.4477153 23.4477153,22 24,22 L28,22 C28.5522847,22 29,22.4477153 29,23 Z" id="Shape" fill="#0377BC"></path>
                <path d="M26,23 L26,37 L23,37 L23,23 C23,22.4477153 23.4477153,22 24,22 L25,22 C25.5522847,22 26,22.4477153 26,23 Z" id="Shape" fill="#02A9F4"></path>
                <path d="M40,33 L40,37 L34,37 L34,33 C34,32.4477153 34.4477153,32 35,32 L39,32 C39.5522847,32 40,32.4477153 40,33 Z" id="Shape" fill="#FEC108"></path>
                <path d="M37,33 L37,37 L34,37 L34,33 C34,32.4477153 34.4477153,32 35,32 L36,32 C36.5522847,32 37,32.4477153 37,33 Z" id="Shape" fill="#FFDC00"></path>
            </g>
            <g id="Layer_10" fill="#000000">
                <path d="M49,9 L49,5 C49,3.8954305 48.1045695,3 47,3 L34.129,3 C32.2532072,1.08136434 29.6832371,-0.000189457381 27,-0.000189457381 C24.3167629,-0.000189457381 21.7467928,1.08136434 19.871,3 L7,3 C6.46956702,3 5.96085919,3.21071368 5.58578644,3.58578644 C5.21071368,3.96085919 5,4.46956702 5,5 L5,9 C2.23994685,9.00330612 0.00330611633,11.2399468 0,14 L0,44 C0.00330611633,46.7600532 2.23994685,48.9966939 5,49 L21,49 L21,52 L20,52 C16.6876624,52.0033074 14.0033074,54.6876624 14,58 C14,59.1045695 14.8954305,60 16,60 L38,60 C39.1045695,60 40,59.1045695 40,58 C39.9966926,54.6876624 37.3123376,52.0033074 34,52 L33,52 L33,49 L49,49 C51.7600532,48.9966939 53.9966939,46.7600532 54,44 L54,14 C53.9966939,11.2399468 51.7600532,9.00330612 49,9 Z M52,14 L52,41 L49,41 L49,11 C50.6568542,11 52,12.3431458 52,14 Z M27,2 C31.418278,2 35,5.581722 35,10 C35,14.418278 31.418278,18 27,18 C22.581722,18 19,14.418278 19,10 C19.0049599,5.58377808 22.5837781,2.00495988 27,2 Z M7,5 L18.353,5 C15.9215697,9.1990867 16.8583275,14.538025 20.5740397,17.6585483 C24.289752,20.7790715 29.710248,20.7790715 33.4259603,17.6585483 C37.1416725,14.538025 38.0784303,9.1990867 35.647,5 L47,5 L47,41 L7,41 L7,5 Z M2,14 C2,12.3431458 3.34314575,11 5,11 L5,41 L2,41 L2,14 Z M38,58 L16,58 C16,55.790861 17.790861,54 20,54 L34,54 C36.2077689,54.0033042 37.9966958,55.7922311 38,58 Z M31,52 L23,52 L23,49 L31,49 L31,52 Z M49,47 L5,47 C3.34314575,47 2,45.6568542 2,44 L2,43 L52,43 L52,44 C52,45.6568542 50.6568542,47 49,47 Z" id="Shape"></path>
                <path d="M29,44 L25,44 C24.4477153,44 24,44.4477153 24,45 C24,45.5522847 24.4477153,46 25,46 L29,46 C29.5522847,46 30,45.5522847 30,45 C30,44.4477153 29.5522847,44 29,44 Z" id="Shape"></path>
                <path d="M25,12.5 C25,11.9477153 24.5522847,11.5 24,11.5 C22.226,11.5 22.794,15.146 26,15.876 C25.9543052,16.2615177 26.1342886,16.6389699 26.4626024,16.8461462 C26.7909162,17.0533226 27.2090838,17.0533226 27.5373976,16.8461462 C27.8657114,16.6389699 28.0456948,16.2615177 28,15.876 C29.6652604,15.5885687 30.9102849,14.1875012 31,12.5 C30.9102849,10.8124988 29.6652604,9.41143131 28,9.124 L28,6.215 C28.5570361,6.40939872 28.9483828,6.9122792 29,7.5 C29,8.05228475 29.4477153,8.5 30,8.5 C31.774,8.5 31.206,4.854 28,4.124 C28.0456948,3.73848225 27.8657114,3.36103007 27.5373976,3.15385376 C27.2090838,2.94667744 26.7909162,2.94667744 26.4626024,3.15385376 C26.1342886,3.36103007 25.9543052,3.73848225 26,4.124 C24.3347396,4.41143131 23.0897151,5.81249883 23,7.5 C23.0897151,9.18750117 24.3347396,10.5885687 26,10.876 L26,13.785 C25.4429639,13.5906013 25.0516172,13.0877208 25,12.5 Z M28,13.785 L28,11.215 C28.587565,11.3646057 28.9988135,11.8936878 28.9988135,12.5 C28.9988135,13.1063122 28.587565,13.6353943 28,13.785 Z M26,6.215 L26,8.785 C25.412435,8.63539431 25.0011865,8.10631217 25.0011865,7.5 C25.0011865,6.89368783 25.412435,6.36460569 26,6.215 Z" id="Shape"></path>
                <path d="M10,20 L18,20 C18.5522847,20 19,19.5522847 19,19 C19,18.4477153 18.5522847,18 18,18 L10,18 C9.44771525,18 9,18.4477153 9,19 C9,19.5522847 9.44771525,20 10,20 Z" id="Shape"></path>
                <path d="M10,24 L18,24 C18.5522847,24 19,23.5522847 19,23 C19,22.4477153 18.5522847,22 18,22 L10,22 C9.44771525,22 9,22.4477153 9,23 C9,23.5522847 9.44771525,24 10,24 Z" id="Shape"></path>
                <path d="M36,20 L44,20 C44.5522847,20 45,19.5522847 45,19 C45,18.4477153 44.5522847,18 44,18 L36,18 C35.4477153,18 35,18.4477153 35,19 C35,19.5522847 35.4477153,20 36,20 Z" id="Shape"></path>
                <path d="M36,24 L44,24 C44.5522847,24 45,23.5522847 45,23 C45,22.4477153 44.5522847,22 44,22 L36,22 C35.4477153,22 35,22.4477153 35,23 C35,23.5522847 35.4477153,24 36,24 Z" id="Shape"></path>
                <path d="M10,39 L44,39 C44.5522847,39 45,38.5522847 45,38 C45,37.4477153 44.5522847,37 44,37 L42,37 L42,34 C42,32.8954305 41.1045695,32 40,32 L36,32 C34.8954305,32 34,32.8954305 34,34 L34,37 L31,37 L31,24 C31,22.8954305 30.1045695,22 29,22 L25,22 C23.8954305,22 23,22.8954305 23,24 L23,37 L20,37 L20,30 C20,28.8954305 19.1045695,28 18,28 L14,28 C12.8954305,28 12,28.8954305 12,30 L12,37 L10,37 C9.44771525,37 9,37.4477153 9,38 C9,38.5522847 9.44771525,39 10,39 Z M36,34 L40,34 L40,37 L36,37 L36,34 Z M25,24 L29,24 L29,37 L25,37 L25,24 Z M14,30 L18,30 L18,37 L14,37 L14,30 Z" id="Shape"></path>
            </g>
        </g>
    </g>
</svg>