<?xml version="1.0" encoding="UTF-8"?>
<svg width="58px" height="59px" viewBox="0 0 58 59" version="1.1" xmlns="http://www.w3.org/2000/svg" xmlns:xlink="http://www.w3.org/1999/xlink">
    <!-- Generator: Sketch 51.3 (57544) - http://www.bohemiancoding.com/sketch -->
    <title>056 - Cash Register</title>
    <desc>Created with Sketch.</desc>
    <defs></defs>
    <g id="Page-1" stroke="none" stroke-width="1" fill="none" fill-rule="evenodd">
        <g id="056---Cash-Register" transform="translate(0.000000, -1.000000)" fill-rule="nonzero">
            <path d="M8,23 C8.07495389,20.0675405 8.58519127,17.1624901 9.514,14.38 C9.78031846,13.5561083 10.548136,12.9984304 11.414,13 L17,12.9999967 L17,27 L8,23 Z" id="Shape" fill="#D15627"></path>
            <path d="M13.73,23 L7.41,23 C6.53578179,22.9990728 5.76226512,23.5660484 5.5,24.4 C4.65,27.08 3,33.61 3,44 L15,44 L13.73,23 Z" id="Shape" fill="#E47E25"></path>
            <rect id="Rectangle-path" fill="#F19B1F" x="13" y="31" width="32" height="14"></rect>
            <path d="M54,34 L51,34 C49.3431458,34 48,32.6568542 48,31 L48,24 C48,23.4477153 48.4477153,23 49,23 C49.5522847,23 50,23.4477153 50,24 L50,31 C50,31.5522847 50.4477153,32 51,32 L54,32 C54.5522847,32 55,32.4477153 55,33 C55,33.5522847 54.5522847,34 54,34 Z" id="Shape" fill="#E47E25"></path>
            <rect id="Rectangle-path" fill="#805333" x="1" y="47" width="56" height="10"></rect>
            <rect id="Rectangle-path" fill="#A46A43" x="0" y="44" width="58" height="4" rx="1"></rect>
            <rect id="Rectangle-path" fill="#A46A43" x="0" y="56" width="58" height="4" rx="1"></rect>
            <rect id="Rectangle-path" fill="#CA8152" x="5" y="48" width="48" height="8"></rect>
            <path d="M44.64,26 L49,26 C50.1011688,25.9918328 50.9918328,25.1011688 51,24 C50.9967052,22.8967981 50.1032019,22.0032948 49,22 L44.11,22 L44.64,26 Z" id="Shape" fill="#F19B1F"></path>
            <rect id="Rectangle-path" fill="#A46A43" x="53" y="31" width="5" height="4" rx="2"></rect>
            <path d="M31,38 L39,38 C40.1045695,38 41,38.8954305 41,40 L41,44 L17,44 L17,40 C17,38.8954305 17.8954305,38 19,38 L31,38 Z" id="Shape" fill="#EFC319"></path>
            <rect id="Rectangle-path" fill="#F19B1F" x="17" y="2" width="24" height="7"></rect>
            <rect id="Rectangle-path" fill="#2C3E50" x="21" y="2" width="16" height="7"></rect>
            <path d="M25,10 C24.5832773,9.99999145 24.2102442,9.74155993 24.0638011,9.35141606 C23.9173581,8.9612722 24.0282078,8.52121208 24.342,8.247 L32.342,1.247 C32.6107274,1.00970197 32.985922,0.93441278 33.3253946,1.04966515 C33.6648672,1.16491752 33.9166702,1.45307503 33.9853765,1.80493322 C34.0540829,2.15679142 33.9291789,2.51850744 33.658,2.753 L25.658,9.753 C25.4761125,9.91279634 25.2421106,10.000636 25,10 Z" id="Shape" fill="#EBEFF0"></path>
            <rect id="Rectangle-path" fill="#F19B1F" x="15" y="9" width="28" height="8"></rect>
            <rect id="Rectangle-path" fill="#35495E" x="19" y="9" width="20" height="8"></rect>
            <path d="M23,19 C22.5591231,19.0005403 22.1699098,18.7122901 22.0418732,18.290414 C21.9138366,17.868538 22.0771898,17.4125875 22.444,17.168 L35.444,8.336 C35.741245,8.1377176 36.1216931,8.11307541 36.4420331,8.2713559 C36.7623732,8.4296364 36.973938,8.746793 36.9970331,9.1033559 C37.0201282,9.4599188 36.851245,9.8017176 36.554,10 L23.554,18.832 C23.3899366,18.9413972 23.1971916,18.999847 23,19 Z" id="Shape" fill="#EBEFF0"></path>
            <path d="M43,3 L15,3 C14.4477153,3 14,2.55228475 14,2 C14,1.44771525 14.4477153,1 15,1 L43,1 C43.5522847,1 44,1.44771525 44,2 C44,2.55228475 43.5522847,3 43,3 Z" id="Shape" fill="#EFC319"></path>
            <path d="M45,10 L13,10 C12.4477153,10 12,9.55228475 12,9 C12,8.44771525 12.4477153,8 13,8 L45,8 C45.5522847,8 46,8.44771525 46,9 C46,9.55228475 45.5522847,10 45,10 Z" id="Shape" fill="#EFC319"></path>
            <path d="M45,32 L13,32 C13.0639864,26.9379796 13.7354575,21.9019462 15,17 L43,17 C44.2645425,21.9019462 44.9360136,26.9379796 45,32 Z" id="Shape" fill="#EFC319"></path>
            <path d="M37.7,18.97 C37.6181411,18.9898228 37.5342247,18.9998928 37.45,19 C36.9933488,19.0008009 36.5941623,18.6921515 36.48,18.25 C36.4,17.92 36.31,17.6 36.22,17.28 C36.1919924,17.1893582 36.1784924,17.0948582 36.18,17 L38.22,17 C38.29,17.25 38.35,17.5 38.42,17.75 C38.4867762,18.0072811 38.4483746,18.2805617 38.3132779,18.5094755 C38.1781813,18.7383893 37.9575067,18.9040989 37.7,18.97 Z" id="Shape" fill="#547580"></path>
            <path d="M38.444,24 C37.949574,23.999586 37.5296693,23.637907 37.456,23.149 C37.407,22.825 37.356,22.496 37.3,22.166 C37.2178213,21.6260736 37.5840286,21.1200784 38.1225939,21.0294072 C38.6611592,20.938736 39.1728587,21.2969294 39.272,21.834 C39.33,22.176 39.3843333,22.515 39.435,22.851 C39.4745614,23.1133057 39.4082795,23.3805824 39.2507412,23.5940093 C39.0932028,23.8074362 38.8573184,23.949523 38.595,23.989 C38.5449767,23.9961084 38.4945254,23.9997836 38.444,24 Z" id="Shape" fill="#547580"></path>
            <path d="M39,29 C38.4750114,29.0014006 38.0383224,28.5965899 38,28.073 C37.976,27.759 37.95,27.431 37.919,27.09 C37.8692944,26.5399244 38.2749244,26.0537057 38.825,26.0040001 C39.3750756,25.9542944 39.8612943,26.3599244 39.911,26.91 C39.942,27.263 39.971,27.603 39.994,27.927 C40.0359126,28.4776079 39.6235989,28.957969 39.073,29 L39,29 Z" id="Shape" fill="#547580"></path>
            <path d="M33.14,17.86 C33.2115538,18.4052606 32.8337206,18.9075564 32.29,18.99 C32.2437797,18.9979622 32.1968827,19.001312 32.15,19 C31.6518619,18.9999245 31.2297393,18.6332322 31.16,18.14 L31.01,17.15 C31.0016979,17.1004557 30.998348,17.0502079 31,17 L33.01,17 C33.05,17.28 33.1,17.57 33.14,17.86 Z" id="Shape" fill="#547580"></path>
            <path d="M32.694,24 C32.1725692,24.0017989 31.7372759,23.602635 31.694,23.083 L31.608,22.09 C31.5582944,21.5399244 31.9639244,21.0537056 32.514,21.004 C33.0640756,20.9542944 33.5502944,21.3599244 33.6,21.91 L33.688,22.917 C33.7110083,23.1813026 33.6280461,23.4439158 33.4573751,23.6470331 C33.286704,23.8501504 33.0423139,23.9771224 32.778,24 C32.75,24 32.722,24 32.694,24 Z" id="Shape" fill="#547580"></path>
            <path d="M33,29 C32.4629665,29.0004298 32.0214812,28.5766039 32,28.04 L31.955,27.048 C31.9371367,26.6907344 32.1112293,26.3510774 32.4116987,26.1569746 C32.7121682,25.9628717 33.093366,25.9438119 33.4116987,26.1069746 C33.7300314,26.2701373 33.9371367,26.5907344 33.955,26.948 L34,27.96 C34.0108235,28.225273 33.9157139,28.4839618 33.7356348,28.6790475 C33.5555557,28.8741332 33.30529,28.989601 33.04,29 L33,29 Z" id="Shape" fill="#547580"></path>
            <path d="M21.82,17 C21.8215076,17.0948582 21.8080076,17.1893582 21.78,17.28 C21.69,17.6 21.6,17.92 21.52,18.25 C21.4058377,18.6921515 21.0066512,19.0008009 20.55,19 C20.4657753,18.9998928 20.3818589,18.9898228 20.3,18.97 C20.0424933,18.9040989 19.8218187,18.7383893 19.6867221,18.5094755 C19.5516254,18.2805617 19.5132238,18.0072811 19.58,17.75 C19.65,17.5 19.71,17.25 19.78,17 L21.82,17 Z" id="Shape" fill="#547580"></path>
            <path d="M19.556,24 C19.5054746,23.9997836 19.4550233,23.9961084 19.405,23.989 C19.1426816,23.949523 18.9067972,23.8074362 18.7492588,23.5940093 C18.5917205,23.3805824 18.5254386,23.1133057 18.565,22.851 C18.6156667,22.5176667 18.67,22.1786667 18.728,21.834 C18.7823228,21.4770912 19.0248027,21.1771718 19.3624173,21.0492998 C19.7000319,20.9214278 20.0803584,20.9854584 20.3574923,21.2168276 C20.6346261,21.4481968 20.7655356,21.8109789 20.7,22.166 C20.645,22.496 20.593,22.825 20.544,23.149 C20.4703307,23.637907 20.050426,23.999586 19.556,24 Z" id="Shape" fill="#547580"></path>
            <path d="M19,29 L18.926,29 C18.6606946,28.9810774 18.4138584,28.8572408 18.2400823,28.6558782 C18.0663062,28.4545156 17.9799095,28.1922195 18,27.927 C18.023,27.603 18.052,27.263 18.083,26.91 C18.1327056,26.3599244 18.6189244,25.9542944 19.169,26.004 C19.7190756,26.0537056 20.1247056,26.5399244 20.075,27.09 C20.044,27.431 20.018,27.759 19.994,28.073 C19.9558471,28.5942881 19.5226796,28.9982582 19,29 Z" id="Shape" fill="#547580"></path>
            <path d="M27,17 C27.001652,17.0502079 26.9983021,17.1004557 26.99,17.15 L26.84,18.14 C26.7702607,18.6332322 26.3481381,18.9999245 25.85,19 C25.8031173,19.001312 25.7562203,18.9979622 25.71,18.99 C25.1662794,18.9075564 24.7884462,18.4052606 24.86,17.86 C24.9,17.57 24.95,17.28 24.99,17 L27,17 Z" id="Shape" fill="#547580"></path>
            <path d="M25.306,24 C25.278,24 25.25,24 25.222,24 C24.9575329,23.9781027 24.7126145,23.851983 24.5411826,23.6494158 C24.3697508,23.4468486 24.2858653,23.1844473 24.308,22.92 L24.4,21.91 C24.4321539,21.5541635 24.6517019,21.2425109 24.9759423,21.0924387 C25.3001827,20.9423665 25.6798558,20.9766743 25.9719423,21.1824387 C26.2640288,21.3882031 26.4241539,21.7341635 26.392,22.09 L26.306,23.083 C26.2627241,23.602635 25.8274308,24.0017989 25.306,24 Z" id="Shape" fill="#547580"></path>
            <path d="M25,29 L24.96,29 C24.69471,28.989601 24.4444443,28.8741332 24.2643652,28.6790475 C24.0842861,28.4839618 23.9891765,28.225273 24,27.96 L24.045,26.952 C24.0726142,26.3997153 24.5427153,25.9743858 25.095,26.002 C25.6472847,26.0296143 26.0726142,26.4997153 26.045,27.052 L26,28.04 C25.9785188,28.5766039 25.5370335,29.0004298 25,29 Z" id="Shape" fill="#547580"></path>
            <path d="M38,53 L20,53 C19.4477153,53 19,52.5522847 19,52 C19,51.4477153 19.4477153,51 20,51 L38,51 C38.5522847,51 39,51.4477153 39,52 C39,52.5522847 38.5522847,53 38,53 Z" id="Shape" fill="#A46A43"></path>
            <circle id="Oval" fill="#F2D45B" cx="29" cy="38" r="2"></circle>
        </g>
    </g>
</svg>