<?xml version="1.0" encoding="UTF-8"?>
<svg width="58px" height="58px" viewBox="0 0 58 58" version="1.1" xmlns="http://www.w3.org/2000/svg" xmlns:xlink="http://www.w3.org/1999/xlink">
    <!-- Generator: Sketch 51.3 (57544) - http://www.bohemiancoding.com/sketch -->
    <title>100 - Chef</title>
    <desc>Created with Sketch.</desc>
    <defs></defs>
    <g id="Page-1" stroke="none" stroke-width="1" fill="none" fill-rule="evenodd">
        <g id="100---Chef" fill-rule="nonzero">
            <circle id="Oval" fill="#35495E" cx="29" cy="29" r="29"></circle>
            <path d="M54,29 C54.0066309,34.941108 51.8852015,40.6881239 48.02,45.2 C47.61,45.69 47.17,46.16 46.72,46.62 C46.23,47.11 45.73,47.58 45.2,48.02 C35.2816922,56.4825014 20.5236725,55.8958318 11.3084138,46.6727214 C2.09315503,37.4496109 1.51905453,22.6910969 9.99,12.78 C10.42,12.27 10.88,11.78 11.35,11.31 C11.82,10.84 12.31,10.39 12.82,9.97 C20.2366425,3.64678969 30.6539731,2.21539871 39.5012306,6.3038715 C48.348488,10.3923443 54.0093392,19.253745 54,29 Z" id="Shape" fill="#2980BA"></path>
            <path d="M29,55 C14.6405965,55 3,43.3594035 3,29 C3,14.6405965 14.6405965,3 29,3 C43.3594035,3 55,14.6405965 55,29 C54.9840179,43.3527783 43.3527783,54.9840179 29,55 Z M29,5 C15.745166,5 5,15.745166 5,29 C5,42.254834 15.745166,53 29,53 C42.254834,53 53,42.254834 53,29 C52.9845705,15.7515624 42.2484376,5.01542952 29,5 Z" id="Shape" fill="#2C3E50"></path>
            <path d="M13.15,16.52 C13.5484196,17.9068274 14.0532513,19.260846 14.66,20.57 C15.2,21.98 15.74,23.38 16.28,24.79" id="Shape" fill="#E6E7E8"></path>
            <path d="M18.42,11.64 C18.1189778,12.1797945 17.9735879,12.7925092 18,13.41 C18.06,15.21 19.03,16.93 19.66,18.57 C20.2,19.98 20.74,21.38 21.28,22.79" id="Shape" fill="#E6E7E8"></path>
            <path d="M43,34.5 L43,47.5 C43,45.84 36.73,44.5 29,44.5 C21.27,44.5 15,45.84 15,47.5 L15,34.5 C15,32.84 21.27,31.5 29,31.5 C36.73,31.5 43,32.84 43,34.5 Z" id="Shape" fill="#BDC3C7"></path>
            <path d="M48.13,20.31 C48.07,22.11 47.11,23.83 46.47,25.47 C45.93,26.88 45.39,28.28 44.85,29.68 C44.23,31.29 43.62,32.89 43,34.5 C43,32.84 36.73,31.5 29,31.5 C21.27,31.5 15,32.84 15,34.5 C14.38,32.89 13.77,31.29 13.15,29.68 C12.61,28.28 12.07,26.88 11.53,25.47 C10.89,23.83 9.93,22.11 9.87,20.31 C9.88496621,18.4128741 11.2746635,16.8070957 13.15,16.52 C13.0601803,16.15648 13.0098886,15.7843215 13,15.41 C12.91,12.62 15.97,11 18.42,11.64 C19.7177261,9.56032926 22.4347959,8.89103475 24.55,10.13 C24.761768,10.2667109 24.9594082,10.4241531 25.14,10.6 L25.7,10.7 C26.2531274,9.36617385 27.5560346,8.49756908 29,8.5 C29.97,8.5 30.83,8.88 32.3,10.7 L32.86,10.6 C33.0405918,10.4241531 33.238232,10.2667109 33.45,10.13 C35.5652041,8.89103475 38.2822739,9.56032926 39.58,11.64 C42.03,11 45.09,12.62 45,15.41 C44.9901114,15.7843215 44.9398197,16.15648 44.85,16.52 C46.7253365,16.8070957 48.1150338,18.4128741 48.13,20.31 Z" id="Shape" fill="#E6E7E8"></path>
            <path d="M41.72,24.79 C42.26,23.38 42.8,21.98 43.34,20.57 C43.9467487,19.260846 44.4515804,17.9068274 44.85,16.52" id="Shape" fill="#E6E7E8"></path>
            <path d="M39.58,11.64 C39.8810222,12.1797945 40.0264121,12.7925092 40,13.41 C39.94,15.21 38.97,16.93 38.34,18.57 C37.8,19.98 37.26,21.38 36.72,22.79" id="Shape" fill="#E6E7E8"></path>
            <path d="M19,42.5 C18.4477153,42.5 18,42.0522847 18,41.5 L18,35.5 C18,34.9477153 18.4477153,34.5 19,34.5 C19.5522847,34.5 20,34.9477153 20,35.5 L20,41.5 C20,42.0522847 19.5522847,42.5 19,42.5 Z" id="Shape" fill="#A5A5A4"></path>
            <path d="M27,23.5 C26.5118804,23.4993685 26.0955394,23.1464297 26.015,22.665 L25.015,16.665 C24.9383044,16.1275345 25.3044592,15.627053 25.8399237,15.5374468 C26.3753881,15.4478407 26.8845353,15.8018467 26.987,16.335 L27.987,22.335 C28.0306615,22.5966405 27.9685814,22.8649086 27.8144208,23.080771 C27.6602601,23.2966334 27.4266511,23.442402 27.165,23.486 C27.1105278,23.4955796 27.0553075,23.5002649 27,23.5 Z" id="Shape" fill="#BDC3C7"></path>
            <path d="M31,23.5 C30.9446925,23.5002649 30.8894722,23.4955796 30.835,23.486 C30.5733489,23.442402 30.3397399,23.2966334 30.1855792,23.080771 C30.0314186,22.8649086 29.9693385,22.5966405 30.013,22.335 L31.013,16.335 C31.1154647,15.8018467 31.6246119,15.4478407 32.1600763,15.5374468 C32.6955408,15.627053 33.0616956,16.1275345 32.985,16.665 L31.985,22.665 C31.9044606,23.1464297 31.4881196,23.4993685 31,23.5 Z" id="Shape" fill="#BDC3C7"></path>
            <path d="M15,48.5 C14.4477153,48.5 14,48.0522847 14,47.5 L14,34.5 C14,33.9477153 14.4477153,33.5 15,33.5 C15.5522847,33.5 16,33.9477153 16,34.5 L16,47.5 C16,48.0522847 15.5522847,48.5 15,48.5 Z" id="Shape" fill="#BDC3C7"></path>
            <path d="M43,48.5 C42.4477153,48.5 42,48.0522847 42,47.5 L42,34.5 C42,33.9477153 42.4477153,33.5 43,33.5 C43.5522847,33.5 44,33.9477153 44,34.5 L44,47.5 C44,48.0522847 43.5522847,48.5 43,48.5 Z" id="Shape" fill="#BDC3C7"></path>
            <path d="M15,35.5 C14.5859944,35.5002742 14.214628,35.2454071 14.066,34.859 L10.6,25.828 C10.456,25.461 10.294,25.085 10.129,24.704 C9.43901837,23.342632 9.01317751,21.8628774 8.874,20.343 C8.87065408,17.9627038 10.5924659,15.9305679 12.941,15.543 C13.2928173,15.4599155 13.6620861,15.573175 13.9068182,15.8392287 C14.1515504,16.1052824 14.2336409,16.4827056 14.121525,16.8263747 C14.0094091,17.1700438 13.7205434,17.4264492 13.366,17.497 C11.9662015,17.6866588 10.9101847,18.8629277 10.872,20.275 C11.0152703,21.5431991 11.3858563,22.7752113 11.966,23.912 C12.14,24.312 12.311,24.712 12.466,25.106 L15.938,34.141 C16.1359775,34.6565574 15.8785464,35.2349939 15.363,35.433 C15.2473099,35.4780322 15.1241431,35.5007654 15,35.5 Z" id="Shape" fill="#BDC3C7"></path>
            <path d="M16.28,25.791 C15.8656057,25.7903841 15.4945241,25.5342463 15.347,25.147 L13.727,20.927 C13.579,20.545 13.413,20.157 13.244,19.765 C12.7889789,18.7902941 12.430275,17.7734641 12.173,16.729 C12.0685834,16.3058941 12.0105744,15.8726714 12,15.437 C11.9520718,13.9893658 12.6060536,12.6076617 13.756,11.727 C15.1436631,10.6338665 16.9592029,10.2446904 18.673,10.673 C19.0281737,10.7546121 19.3108291,11.022978 19.4107401,11.3734444 C19.5106512,11.7239108 19.411997,12.1009806 19.1532491,12.3576097 C18.8945013,12.6142387 18.5166331,12.7097893 18.167,12.607 C17.0624006,12.3409832 15.8967764,12.5923634 15,13.29 C14.3468286,13.7818673 13.9737953,14.560761 14,15.378 C14.0076245,15.6814964 14.0481958,15.9832666 14.121,16.278 C14.3553906,17.2065814 14.677852,18.1106787 15.084,18.978 C15.262,19.394 15.439,19.805 15.595,20.212 L17.215,24.434 C17.3328997,24.7415015 17.2918393,25.0873376 17.1052141,25.3586833 C16.918589,25.6300291 16.6103288,25.7920917 16.281,25.792 L16.28,25.791 Z" id="Shape" fill="#BDC3C7"></path>
            <path d="M21.284,23.786 C20.8703598,23.7858604 20.4994968,23.531066 20.351,23.145 L18.73,18.933 C18.58,18.542 18.411,18.148 18.239,17.749 C17.5597604,16.4040114 17.1394593,14.9433039 17,13.443 C16.9586999,11.6914195 17.9128231,10.0675118 19.463,9.251 C21.2037395,8.22787595 23.3656042,8.24285423 25.092,9.29 C25.3623172,9.46466978 25.613383,9.6674666 25.841,9.895 C26.1009566,10.1460745 26.2052126,10.5178779 26.1136972,10.8675073 C26.0221817,11.2171368 25.7491368,11.4901817 25.3995073,11.5816972 C25.0498779,11.6732126 24.6780745,11.5689566 24.427,11.309 C24.2985618,11.1805762 24.1567552,11.0662593 24.004,10.968 C22.901098,10.3326896 21.5412287,10.341865 20.447,10.992 C19.5483582,11.4439476 18.9865281,12.3692007 19,13.375 C19.1424271,14.6242001 19.5068148,15.8379226 20.076,16.959 C20.258,17.383 20.437,17.801 20.597,18.215 L22.217,22.427 C22.4150821,22.9422769 22.158152,23.5205934 21.643,23.719 C21.5283504,23.7627909 21.406727,23.7854894 21.284,23.786 Z" id="Shape" fill="#BDC3C7"></path>
            <path d="M43,35.5 C42.877201,35.5002632 42.7554377,35.4775386 42.641,35.433 C42.1254536,35.2349939 41.8680225,34.6565574 42.066,34.141 L45.536,25.112 C45.692,24.712 45.863,24.312 46.036,23.912 C46.6158538,22.7758043 46.9864304,21.544501 47.13,20.277 C47.0927796,18.8641623 46.0365276,17.6867843 44.636,17.497 C44.2838265,17.423939 43.9980179,17.1673798 43.8875059,16.8251062 C43.7769939,16.4828327 43.8588048,16.1075779 44.1017576,15.8423647 C44.3447104,15.5771516 44.711374,15.4628407 45.062,15.543 C47.4101366,15.9310054 49.1314263,17.9630248 49.128,20.343 C48.9886152,21.8614392 48.5631287,23.339784 47.874,24.7 C47.709,25.081 47.547,25.457 47.401,25.83 L43.934,34.855 C43.7866708,35.242981 43.4150121,35.4996404 43,35.5 Z" id="Shape" fill="#BDC3C7"></path>
            <path d="M41.72,25.791 C41.3906712,25.7910917 41.082411,25.6290291 40.8957859,25.3576833 C40.7091607,25.0863376 40.6681003,24.7405015 40.786,24.433 L42.406,20.212 C42.563,19.804 42.739,19.393 42.917,18.977 C43.3184032,18.120318 43.6381511,17.2277024 43.872,16.311 C43.9485076,16.0076242 43.9914321,15.6967569 44,15.384 C44.0280123,14.5647064 43.6548052,13.7832107 43,13.29 C42.1043282,12.593313 40.9403399,12.3419681 39.837,12.607 C39.4873669,12.7097893 39.1094987,12.6142387 38.8507509,12.3576097 C38.592003,12.1009806 38.4933488,11.7239108 38.5932599,11.3734444 C38.6931709,11.022978 38.9758263,10.7546121 39.331,10.673 C41.0447732,10.2432855 42.8609346,10.6325949 44.248,11.727 C45.3979078,12.6095465 46.0505055,13.9933366 46,15.442 C45.9887837,15.8882734 45.9284194,16.3319515 45.82,16.765 C45.5632211,17.7969342 45.2072302,18.8016121 44.757,19.765 C44.588,20.157 44.422,20.545 44.274,20.929 L42.654,25.147 C42.5063455,25.5345875 42.13476,25.7907984 41.72,25.791 Z" id="Shape" fill="#BDC3C7"></path>
            <path d="M36.716,23.786 C36.5929367,23.7856101 36.4709638,23.7629096 36.356,23.719 C35.840848,23.5205934 35.5839179,22.9422769 35.782,22.427 L37.402,18.215 C37.562,17.801 37.741,17.383 37.923,16.959 C38.4925321,15.8379886 38.8572593,14.6242632 39,13.375 C39.0130956,12.3687536 38.4504189,11.4433855 37.551,10.992 C36.4568349,10.3419765 35.0971938,10.3324204 33.994,10.967 C33.8414298,11.0658961 33.6996541,11.1805233 33.571,11.309 C33.3245774,11.5858272 32.9452601,11.7036637 32.5853566,11.6151941 C32.2254532,11.5267246 31.943995,11.2464599 31.8539969,10.8869356 C31.7639988,10.5274112 31.8802224,10.1475966 32.156,9.9 C32.3838594,9.67244283 32.6348913,9.46933826 32.905,9.294 C34.631828,8.24803964 36.793208,8.23344869 38.534,9.256 C40.0837004,10.0708792 41.038806,11.6925448 41,13.443 C40.8614797,14.9431061 40.442199,16.403804 39.764,17.749 C39.592,18.149 39.423,18.542 39.273,18.933 L37.652,23.145 C37.5031107,23.5320907 37.1307361,23.7871036 36.716,23.786 Z" id="Shape" fill="#BDC3C7"></path>
            <path d="M32.56,13.476 C32.5225865,13.4759949 32.4851999,13.4739921 32.448,13.47 C32.1841739,13.4408516 31.9427599,13.3080101 31.7769462,13.100743 C31.6111325,12.8934759 31.5345244,12.6287897 31.564,12.365 C31.6491837,11.6352249 31.4155771,10.9041565 30.923,10.359 C30.4240743,9.82856728 29.7282072,9.52777611 29,9.52777611 C28.2717928,9.52777611 27.5759257,9.82856728 27.077,10.359 C26.5844229,10.9041565 26.3508163,11.6352249 26.436,12.365 C26.4970275,12.9142472 26.1012472,13.4089725 25.552,13.47 C25.0027528,13.5310275 24.5080275,13.1352472 24.447,12.586 C24.2529319,10.8388015 25.075818,9.13465321 26.5648034,8.20015464 C28.0537888,7.26565607 29.9462112,7.26565607 31.4351966,8.20015464 C32.924182,9.13465321 33.7470681,10.8388015 33.553,12.586 C33.4969707,13.0922684 33.0693591,13.4755255 32.56,13.476 Z" id="Shape" fill="#BDC3C7"></path>
            <ellipse id="Oval" fill="#2C2F38" cx="29" cy="47.5" rx="15" ry="3"></ellipse>
        </g>
    </g>
</svg>