<?xml version="1.0" encoding="UTF-8"?>
<svg width="58px" height="58px" viewBox="0 0 58 58" version="1.1" xmlns="http://www.w3.org/2000/svg" xmlns:xlink="http://www.w3.org/1999/xlink">
    <!-- Generator: Sketch 51.1 (57501) - http://www.bohemiancoding.com/sketch -->
    <title>062 - Group Schedule</title>
    <desc>Created with Sketch.</desc>
    <defs></defs>
    <g id="Page-1" stroke="none" stroke-width="1" fill="none" fill-rule="evenodd">
        <g id="062---Group-Schedule" fill-rule="nonzero">
            <rect id="Rectangle-path" fill="#ECF0F1" x="0" y="3" width="58" height="51" rx="2"></rect>
            <path d="M58,5 L58,12 L0,12 L0,5 C0.00329480111,3.89679813 0.896798134,3.0032948 2,3 L56,3 C57.1032019,3.0032948 57.9967052,3.89679813 58,5 Z" id="Shape" fill="#E64C3C"></path>
            <path d="M15.91,20.58 C15.9706233,20.3926759 16.0010043,20.196887 16,20 L16,18 C15.9967052,16.8967981 15.1032019,16.0032948 14,16 L6,16 C4.89679813,16.0032948 4.0032948,16.8967981 4,18 L4,20 C4.0032948,21.1032019 4.89679813,21.9967052 6,22 L14,22 C14.1140109,22.0003856 14.2278182,21.9903438 14.34,21.97 L15.91,20.58 Z" id="Shape" fill="#95A5A5"></path>
            <path d="M43.66,21.97 C43.7721818,21.9903438 43.8859891,22.0003856 44,22 L52,22 C53.1032019,21.9967052 53.9967052,21.1032019 54,20 L54,18 C53.9967052,16.8967981 53.1032019,16.0032948 52,16 L44,16 C42.8967981,16.0032948 42.0032948,16.8967981 42,18 L42,20 C41.9989957,20.196887 42.0293767,20.3926759 42.09,20.58 L43.66,21.97 Z" id="Shape" fill="#95A5A5"></path>
            <path d="M8.03,36 L6,36 C4.89679813,35.9967052 4.0032948,35.1032019 4,34 L4,32 C4.0032948,30.8967981 4.89679813,30.0032948 6,30 L9.2,30 L8.03,36 Z" id="Shape" fill="#95A5A5"></path>
            <path d="M49.97,36 L52,36 C53.1032019,35.9967052 53.9967052,35.1032019 54,34 L54,32 C53.9967052,30.8967981 53.1032019,30.0032948 52,30 L48.8,30 L49.97,36 Z" id="Shape" fill="#95A5A5"></path>
            <path d="M9.2,44 L6,44 C4.89679813,44.0032948 4.0032948,44.8967981 4,46 L4,48 C4.0032948,49.1032019 4.89679813,49.9967052 6,50 L12.51,50 L9.2,44 Z" id="Shape" fill="#95A5A5"></path>
            <path d="M48.8,44 L52,44 C53.1032019,44.0032948 53.9967052,44.8967981 54,46 L54,48 C53.9967052,49.1032019 53.1032019,49.9967052 52,50 L45.49,50 L48.8,44 Z" id="Shape" fill="#95A5A5"></path>
            <rect id="Rectangle-path" fill="#95A5A5" x="5" y="0" width="4" height="8" rx="2"></rect>
            <rect id="Rectangle-path" fill="#95A5A5" x="19" y="0" width="4" height="8" rx="2"></rect>
            <rect id="Rectangle-path" fill="#95A5A5" x="35" y="0" width="4" height="8" rx="2"></rect>
            <rect id="Rectangle-path" fill="#95A5A5" x="49" y="0" width="4" height="8" rx="2"></rect>
            <circle id="Oval" fill="#35495E" cx="29" cy="37" r="21"></circle>
            <circle id="Oval" fill="#FDD7AD" cx="29" cy="35" r="5"></circle>
            <circle id="Oval" fill="#FDD7AD" cx="16" cy="36" r="4"></circle>
            <circle id="Oval" fill="#FDD7AD" cx="42" cy="36" r="4"></circle>
            <path d="M40,47 L40,54.89 C33.2528792,59.0367538 24.7471208,59.0367538 18,54.89 L18,47 C17.9943975,44.295743 19.5535306,41.8323128 22,40.68 C22.9354462,40.2286286 23.9613565,39.996089 25,40 L33,40 C34.0386435,39.996089 35.0645538,40.2286286 36,40.68 C38.4464694,41.8323128 40.0056025,44.295743 40,47 Z" id="Shape" fill="#3B97D3"></path>
            <path d="M22,40.68 C19.5535306,41.8323128 17.9943975,44.295743 18,47 L18,54.89 C13.1805928,51.9298538 9.76180995,47.1478854 8.52,41.63 C9.77299933,40.5729584 11.3606946,39.9952925 13,40 L19,40 C20.0386435,39.996089 21.0645538,40.2286286 22,40.68 Z" id="Shape" fill="#2980BA"></path>
            <path d="M49.48,41.63 C48.23819,47.1478854 44.8194072,51.9298538 40,54.89 L40,47 C40.0056025,44.295743 38.4464694,41.8323128 36,40.68 C36.9354462,40.2286286 37.9613565,39.996089 39,40 L45,40 C46.6393054,39.9952925 48.2270007,40.5729584 49.48,41.63 Z" id="Shape" fill="#2980BA"></path>
        </g>
    </g>
</svg>