<?xml version="1.0" encoding="UTF-8"?>
<svg width="58px" height="58px" viewBox="0 0 58 58" version="1.1" xmlns="http://www.w3.org/2000/svg" xmlns:xlink="http://www.w3.org/1999/xlink">
    <!-- Generator: Sketch 51.3 (57544) - http://www.bohemiancoding.com/sketch -->
    <title>023 - Avocado</title>
    <desc>Created with Sketch.</desc>
    <defs></defs>
    <g id="Page-1" stroke="none" stroke-width="1" fill="none" fill-rule="evenodd">
        <g id="023---Avocado" transform="translate(-1.000000, -1.000000)" fill-rule="nonzero">
            <path d="M29.94,5.32 C27.71,2.54 24.96,1 22,1 C15.65,1 10.33,8.05 8.84,19.25 C8.59009243,20.9327576 7.8209665,22.4954817 6.64,23.72 C1.23485811,29.5065701 -0.4488654,37.8447967 2.28736783,45.2753404 C5.02360106,52.7058841 11.7128893,57.9608217 19.58,58.86 C23.0969061,59.263577 26.6588701,58.7787923 29.94,57.45 L29.94,5.32 Z" id="Shape" fill="#4C8056"></path>
            <path d="M8.999,28.084 C8.60952922,28.0839167 8.25553986,27.8577159 8.09183774,27.5043194 C7.92813562,27.1509229 7.98450712,26.7346327 8.2363,26.4375 C8.42823333,26.2114333 8.62633333,25.9889333 8.8306,25.77 C10.4394074,24.0884119 11.4824894,21.9460974 11.814,19.6426 C12.1749611,16.7052088 12.9388062,13.8315359 14.084,11.1026 C14.3056871,10.5967072 14.8955072,10.3663129 15.4014,10.588 C15.9072928,10.8096871 16.1376871,11.3995072 15.916,11.9054 C14.845436,14.4632828 14.1320737,17.15636 13.796,19.9088 C13.4096898,22.6245286 12.1840613,25.1515527 10.2906,27.1363 C10.109,27.3307 9.93306667,27.5286333 9.7628,27.7301 C9.57279982,27.9548692 9.29331471,28.0843662 8.999,28.084 Z" id="Shape" fill="#FFFFFF"></path>
            <path d="M17.88,8 C17.4772923,8.00014386 17.1137918,7.75871338 16.9577575,7.38746302 C16.8017232,7.01621266 16.8836045,6.58759084 17.1655,6.3 C17.5676008,5.88562703 18.0078833,5.51009784 18.4805,5.1784 C18.933963,4.87348294 19.5482196,4.98903037 19.8598926,5.43787667 C20.1715656,5.88672297 20.065229,6.50264091 19.6211,6.821 C19.2523376,7.08059939 18.9088532,7.37436408 18.5952,7.6984 C18.407289,7.89135862 18.1493391,8.00013616 17.88,8 Z" id="Shape" fill="#FFFFFF"></path>
            <path d="M7,43 C6.73396466,43.0027011 6.47803835,42.8982118 6.28991326,42.7100867 C6.10178817,42.5219616 5.99729892,42.2660353 6,42 C6.00157533,41.9362338 6.00826345,41.8726966 6.02,41.81 C6.0292771,41.7436075 6.04955491,41.6792254 6.08,41.6195 C6.10197814,41.5558135 6.13223766,41.4952944 6.17,41.4395 C6.21,41.3895 6.25,41.3395 6.29,41.2895 C6.57974099,41.0099257 7.00712807,40.9275851 7.38,41.0795 C7.50233658,41.1279108 7.61433238,41.1991808 7.71,41.2895 C7.75320605,41.3368486 7.79329045,41.3869542 7.83,41.4395 C7.86776234,41.4952944 7.89802186,41.5558135 7.92,41.6195 C7.95021309,41.6793201 7.97047853,41.7436629 7.98,41.81 C7.99149001,41.8727324 7.99817609,41.9362501 8,42 C8.00962925,42.4071998 7.76103859,42.7760763 7.38,42.92 C7.25977769,42.971241 7.13067726,42.99842 7,43 Z" id="Shape" fill="#FFFFFF"></path>
            <path d="M12.62,46.08 C12.3540141,46.0825362 12.098184,45.977994 11.910095,45.789905 C11.722006,45.601816 11.6174638,45.3459859 11.62,45.08 C11.6215856,45.0162344 11.6282736,44.9526981 11.64,44.89 C11.6493347,44.8237798 11.669611,44.7595715 11.7,44.7 C11.7219578,44.6363049 11.7522186,44.5757833 11.79,44.52 C11.83,44.47 11.87,44.42 11.91,44.37 C12.1996914,44.0903302 12.6271386,44.007978 13,44.16 C13.1223366,44.2084108 13.2343324,44.2796808 13.33,44.37 C13.373206,44.4173486 13.4132905,44.4674542 13.45,44.52 C13.4877814,44.5757833 13.5180422,44.6363049 13.54,44.7 C13.5701567,44.7596664 13.5904206,44.8238355 13.6,44.89 C13.6115292,44.9527267 13.6182156,45.0162475 13.62,45.08 C13.6160117,45.3447048 13.5124726,45.5981972 13.33,45.79 C13.234244,45.8802056 13.1222712,45.9514611 13,46 C12.8797777,46.051241 12.7506773,46.07842 12.62,46.08 Z" id="Shape" fill="#FFFFFF"></path>
            <path d="M15,51.9948 C14.7339647,51.9975011 14.4780384,51.8930118 14.2899133,51.7048867 C14.1017882,51.5167616 13.9972989,51.2608353 14,50.9948 C14.0015856,50.9310344 14.0082736,50.8674981 14.02,50.8048 C14.0293202,50.7385765 14.0495972,50.6743659 14.08,50.6148 C14.1019578,50.5511049 14.1322186,50.4905833 14.17,50.4348 C14.21,50.3848 14.25,50.3348 14.29,50.2848 C14.5797162,50.005178 15.0071334,49.9228316 15.38,50.0748 C15.5023332,50.1232173 15.6143279,50.1944866 15.71,50.2848 C15.753206,50.3321486 15.7932905,50.3822542 15.83,50.4348 C15.8677814,50.4905833 15.8980422,50.5511049 15.92,50.6148 C15.9501715,50.6744604 15.9704362,50.7386319 15.98,50.8048 C15.99148,50.8675338 15.998166,50.9310508 16,50.9948 C15.9959627,51.2594948 15.8924306,51.51297 15.71,51.7048 C15.614244,51.7950056 15.5022712,51.8662611 15.38,51.9148 C15.2597777,51.966041 15.1306773,51.99322 15,51.9948 Z" id="Shape" fill="#FFFFFF"></path>
            <path d="M53.31,23.67 C52.1627266,22.4810571 51.4146839,20.9639986 51.17,19.33 C49.69,8.08 44.37,1 38,1 C37.8463951,0.99667729 37.6927369,1.00335808 37.54,1.02 C31.39,1.35 26.29,8.32 24.84,19.25 C24.5900795,20.9327536 23.8209555,22.4954739 22.64,23.72 C17.2347025,29.506517 15.5508818,37.8448179 18.2871383,45.2754249 C21.0233949,52.7060319 27.7128053,57.9609631 35.58,58.86 C36.2307599,58.9345374 36.8850076,58.9745934 37.54,58.98 C45.9885066,59.1821067 53.7318542,54.2904328 57.1780842,46.5741118 C60.6243142,38.8577908 59.0991186,29.8266401 53.31,23.67 Z M37.54,54.99 C37.04,54.98 36.53,54.94 36.02,54.89 C29.654742,54.1584733 24.2448372,49.9027818 22.0350438,43.8887603 C19.8252504,37.8747388 21.1927038,31.1287733 25.57,26.45 C27.3195412,24.6204362 28.4494974,22.2870593 28.8,19.78 C29.92,11.39 33.47,5.44 37.54,5.03 L37.54,54.99 Z" id="Shape" fill="#24AE5F"></path>
            <path d="M25.57,26.45 C21.1927038,31.1287733 19.8252504,37.8747388 22.0350438,43.8887603 C24.2448372,49.9027818 29.654742,54.1584733 36.02,54.89 C36.53,54.94 37.04,54.98 37.54,54.99 L37.54,58.98 C36.8850076,58.9745934 36.2307599,58.9345374 35.58,58.86 C27.7128053,57.9609631 21.0233949,52.7060319 18.2871383,45.2754249 C15.5508818,37.8448179 17.2347025,29.506517 22.64,23.72 C23.8209555,22.4954739 24.5900795,20.9327536 24.84,19.25 C26.29,8.32 31.39,1.35 37.54,1.02 L37.54,5.03 C33.47,5.44 29.92,11.39 28.8,19.78 C28.4494974,22.2870593 27.3195412,24.6204362 25.57,26.45 Z" id="Shape" fill="#4FBA6F"></path>
            <path d="M37.54,5.03 L37.54,54.99 C37.04,54.98 36.53,54.94 36.02,54.89 C29.654742,54.1584733 24.2448372,49.9027818 22.0350438,43.8887603 C19.8252504,37.8747388 21.1927038,31.1287733 25.57,26.45 C27.3195412,24.6204362 28.4494974,22.2870593 28.8,19.78 C29.92,11.39 33.47,5.44 37.54,5.03 Z" id="Shape" fill="#F3D55B"></path>
            <path d="M55,38.02 C54.9815375,47.397944 47.3779592,54.9925769 38,55 C37.85,55 37.7,55 37.54,54.99 L37.54,5.03 C37.6925222,5.0100528 37.8461789,5.00003172 38,5 C42.27,5 46.06,11.11 47.21,19.85 C47.5538085,22.3186992 48.6705167,24.6151274 50.4,26.41 C53.3608266,29.5498486 55.0068703,33.7043197 55,38.02 Z" id="Shape" fill="#F0C419"></path>
            <path d="M45,39 C45,43.4183 41.866,47 38,47 C34.134,47 31,43.4183 31,39 C31,34.5817 34.134,28 38,28 C41.866,28 45,34.5817 45,39 Z" id="Shape" fill="#805333"></path>
            <path d="M35,40 C34.4477153,40 34,39.5522847 34,39 C34,35.6226 36.1362,31.9175 37.5215,31.1626 C37.8353221,30.9916484 38.2165073,31.0011047 38.5214667,31.1874068 C38.8264262,31.373709 39.0088293,31.7085531 38.9999667,32.0658068 C38.9911041,32.4230605 38.7923221,32.7484484 38.4785,32.9194 C37.8794,33.2456 36,36.2319 36,39 C36,39.5522847 35.5522847,40 35,40 Z" id="Shape" fill="#A56A43"></path>
        </g>
    </g>
</svg>