<?xml version="1.0" encoding="UTF-8"?>
<svg width="46px" height="58px" viewBox="0 0 46 58" version="1.1" xmlns="http://www.w3.org/2000/svg" xmlns:xlink="http://www.w3.org/1999/xlink">
    <!-- Generator: Sketch 51.3 (57544) - http://www.bohemiancoding.com/sketch -->
    <title>016 - Checklist</title>
    <desc>Created with Sketch.</desc>
    <defs></defs>
    <g id="Page-1" stroke="none" stroke-width="1" fill="none" fill-rule="evenodd">
        <g id="016---Checklist" fill-rule="nonzero">
            <path d="M33.73,6 L41,6 C43.7614237,6 46,8.23857625 46,11 L46,53 C46,55.7614237 43.7614237,58 41,58 L5,58 C2.23857625,58 3.55271368e-15,55.7614237 3.55271368e-15,53 L3.55271368e-15,11 C3.55271368e-15,8.23857625 2.23857625,6 5,6 L33.73,6 Z" id="Shape" fill="#7F5B53"></path>
            <path d="M34,10 L40,10 C41.1032019,10.0032948 41.9967052,10.8967981 42,12 L42,44.172 C41.9998867,44.7023896 41.7890987,45.2110145 41.414,45.586 L33.586,53.414 C33.2110145,53.7890987 32.7023896,53.9998867 32.172,54 L6,54 C4.89679813,53.9967052 4.0032948,53.1032019 4,52 L4,12 C4.0032948,10.8967981 4.89679813,10.0032948 6,10 L34,10 Z" id="Shape" fill="#FFFFFF"></path>
            <path d="M18,5 C18,2.23857625 20.2385763,1.33226763e-15 23,8.8817842e-16 C25.7614237,4.4408921e-16 28,2.23857625 28,5 L32,5 C33.1032019,5.0032948 33.9967052,5.89679813 34,7 L34,11 C33.9967052,12.1032019 33.1032019,12.9967052 32,13 L14,13 C12.8967981,12.9967052 12.0032948,12.1032019 12,11 L12,7 C12.0032948,5.89679813 12.8967981,5.0032948 14,5 L18,5 Z" id="Shape" fill="#D1D4D1"></path>
            <path d="M28,10 L18,10 C17.4477153,10 17,9.55228475 17,9 C17,8.44771525 17.4477153,8 18,8 L28,8 C28.5522847,8 29,8.44771525 29,9 C29,9.55228475 28.5522847,10 28,10 Z" id="Shape" fill="#A5A5A4"></path>
            <path d="M33,53.82 L33,46 C33,45.4477153 33.4477153,45 34,45 L41.82,45 L33,53.82 Z" id="Shape" fill="#E6E7E8"></path>
            <path d="M15,29 L9,29 C7.8954305,29 7,28.1045695 7,27 L7,21 C7,19.8954305 7.8954305,19 9,19 L12,19 C12.5522847,19 13,19.4477153 13,20 C13,20.5522847 12.5522847,21 12,21 L9,21 L9,27 L15,27 L15,26 C15,25.4477153 15.4477153,25 16,25 C16.5522847,25 17,25.4477153 17,26 L17,27 C17,28.1045695 16.1045695,29 15,29 Z" id="Shape" fill="#A5A5A4"></path>
            <path d="M15,43 L9,43 C7.8954305,43 7,42.1045695 7,41 L7,35 C7,33.8954305 7.8954305,33 9,33 L15,33 C16.1045695,33 17,33.8954305 17,35 L17,41 C17,42.1045695 16.1045695,43 15,43 Z M9,35 L9,41 L15,41 L15,35 L9,35 Z" id="Shape" fill="#A5A5A4"></path>
            <path d="M25,23 L20,23 C19.4477153,23 19,22.5522847 19,22 C19,21.4477153 19.4477153,21 20,21 L25,21 C25.5522847,21 26,21.4477153 26,22 C26,22.5522847 25.5522847,23 25,23 Z" id="Shape" fill="#5E5F62"></path>
            <path d="M38,23 L29,23 C28.4477153,23 28,22.5522847 28,22 C28,21.4477153 28.4477153,21 29,21 L38,21 C38.5522847,21 39,21.4477153 39,22 C39,22.5522847 38.5522847,23 38,23 Z" id="Shape" fill="#5E5F62"></path>
            <path d="M30,27 L20,27 C19.4477153,27 19,26.5522847 19,26 C19,25.4477153 19.4477153,25 20,25 L30,25 C30.5522847,25 31,25.4477153 31,26 C31,26.5522847 30.5522847,27 30,27 Z" id="Shape" fill="#5E5F62"></path>
            <path d="M38,27 L34,27 C33.4477153,27 33,26.5522847 33,26 C33,25.4477153 33.4477153,25 34,25 L38,25 C38.5522847,25 39,25.4477153 39,26 C39,26.5522847 38.5522847,27 38,27 Z" id="Shape" fill="#5E5F62"></path>
            <path d="M25,37 L20,37 C19.4477153,37 19,36.5522847 19,36 C19,35.4477153 19.4477153,35 20,35 L25,35 C25.5522847,35 26,35.4477153 26,36 C26,36.5522847 25.5522847,37 25,37 Z" id="Shape" fill="#5E5F62"></path>
            <path d="M38,37 L29,37 C28.4477153,37 28,36.5522847 28,36 C28,35.4477153 28.4477153,35 29,35 L38,35 C38.5522847,35 39,35.4477153 39,36 C39,36.5522847 38.5522847,37 38,37 Z" id="Shape" fill="#5E5F62"></path>
            <path d="M30,41 L20,41 C19.4477153,41 19,40.5522847 19,40 C19,39.4477153 19.4477153,39 20,39 L30,39 C30.5522847,39 31,39.4477153 31,40 C31,40.5522847 30.5522847,41 30,41 Z" id="Shape" fill="#5E5F62"></path>
            <path d="M38,41 L34,41 C33.4477153,41 33,40.5522847 33,40 C33,39.4477153 33.4477153,39 34,39 L38,39 C38.5522847,39 39,39.4477153 39,40 C39,40.5522847 38.5522847,41 38,41 Z" id="Shape" fill="#5E5F62"></path>
            <path d="M13,26 C12.7348052,25.9999434 12.4804927,25.8945494 12.293,25.707 L10.293,23.707 C9.91402779,23.3146211 9.91944763,22.6909152 10.3051814,22.3051814 C10.6909152,21.9194476 11.3146211,21.9140278 11.707,22.293 L12.872,23.458 L17.187,17.419 C17.3884575,17.112936 17.7411728,16.9415613 18.1062932,16.9723405 C18.4714137,17.0031197 18.7904618,17.2311234 18.9378386,17.5665938 C19.0852155,17.9020641 19.0373173,18.2912725 18.813,18.581 L13.813,25.581 C13.6423298,25.8203787 13.3749703,25.9725285 13.082,25.997 C13.055,26 13.027,26 13,26 Z" id="Shape" fill="#24AE5F"></path>
        </g>
    </g>
</svg>