<?xml version="1.0" encoding="UTF-8"?>
<svg width="53px" height="58px" viewBox="0 0 53 58" version="1.1" xmlns="http://www.w3.org/2000/svg" xmlns:xlink="http://www.w3.org/1999/xlink">
    <!-- Generator: Sketch 51.3 (57544) - http://www.bohemiancoding.com/sketch -->
    <title>003 - Moving Boxes</title>
    <desc>Created with Sketch.</desc>
    <defs></defs>
    <g id="Page-1" stroke="none" stroke-width="1" fill="none" fill-rule="evenodd">
        <g id="003---Moving-Boxes" transform="translate(-1.000000, -1.000000)" fill-rule="nonzero">
            <path d="M21,48 C20.1345848,47.9992215 19.3678458,47.4419233 19.1,46.619 L5.817,5.828 L3.894,6.789 C2.90596258,7.28301871 1.70451871,6.88253742 1.2105,5.8945 C0.716481291,4.90646258 1.11696258,3.70501871 2.105,3.211 L6.105,1.211 C6.62616479,0.949248959 7.23562018,0.928020715 7.77373417,1.15287549 C8.31184816,1.37773027 8.72500927,1.82626612 8.905,2.381 L22.266,43.429 L51.33,33.115 C52.3710568,32.7455215 53.5145215,33.2899432 53.884,34.331 C54.2534785,35.3720568 53.7090568,36.5155215 52.668,36.885 L21.668,47.885 C21.4535283,47.9611757 21.227598,48.0000708 21,48 Z" id="Shape" fill="#F3D55B"></path>
            <path d="M52.67,36.88 L21.67,47.88 C21.1623528,48.0604853 20.6033582,48.0285207 20.1195938,47.7913444 C19.6358294,47.5541681 19.2682177,47.1318432 19.1,46.62 L18.81,45.72 C19.1719391,46.3067854 19.8105805,46.665785 20.5,46.67 C20.7285951,46.6690761 20.9552944,46.6284732 21.17,46.55 L52.17,35.55 C52.9577056,35.2678506 53.4877233,34.5266228 53.5,33.69 C53.6681406,33.8758121 53.7973499,34.0934279 53.88,34.33 C54.0593161,34.8285327 54.0324347,35.3779897 53.8053114,35.856638 C53.5781881,36.3352862 53.1695747,36.7036076 52.67,36.88 Z" id="Shape" fill="#F0C419"></path>
            <circle id="Oval" fill="#2C3E50" cx="24.999" cy="53" r="6"></circle>
            <circle id="Oval" fill="#35495E" cx="24.999" cy="53" r="5"></circle>
            <circle id="Oval" fill="#547580" cx="24.999" cy="53" r="2"></circle>
            <rect id="Rectangle-path" fill="#7F5B53" transform="translate(34.171208, 28.633794) rotate(-19.342000) translate(-34.171208, -28.633794) " x="23.1712083" y="18.6337942" width="22" height="20" rx="1"></rect>
            <rect id="Rectangle-path" fill="#AF8066" transform="translate(34.171208, 28.634794) rotate(-19.342000) translate(-34.171208, -28.634794) " x="24.4942083" y="18.6347942" width="19.354" height="20" rx="1"></rect>
            <path d="M34.529,25.29 L33.492,25.025 C33.1007086,24.9249854 32.6876668,25.0701615 32.445,25.393 L31.801,26.248 C31.5791857,26.5423714 31.213423,26.6908584 30.8491854,26.6344037 C30.4849479,26.5779489 30.1812959,26.3257065 30.059,25.978 L28.028,20.192 L33.689,18.2 L35.72,23.99 C35.8420703,24.3379019 35.7628034,24.7247502 35.513742,24.9966056 C35.2646807,25.268461 34.8862348,25.3812153 34.529,25.29 Z" id="Shape" fill="#7F5B53"></path>
            <rect id="Rectangle-path" fill="#AF8066" transform="translate(27.930740, 13.119212) rotate(-19.342000) translate(-27.930740, -13.119212) " x="20.5567404" y="6.41521173" width="14.748" height="13.408" rx="1"></rect>
            <rect id="Rectangle-path" fill="#CB9080" transform="translate(27.928713, 13.119983) rotate(-19.342000) translate(-27.928713, -13.119983) " x="21.6232128" y="6.41598331" width="12.611" height="13.408" rx="1"></rect>
            <path d="M28.479,10.956 L27.365,10.671 C27.169511,10.6212131 26.9632527,10.6937781 26.842,10.855 L26.151,11.773 C26.0400928,11.9201857 25.8572115,11.9944292 25.6750927,11.9662018 C25.4929739,11.9379745 25.341148,11.8118533 25.28,11.638 L23.813,7.459 L27.613,6.127 L29.08,10.306 C29.1420976,10.4810892 29.1020008,10.6761726 28.97588,10.812576 C28.8497593,10.9489795 28.6584099,11.0042123 28.479,10.956 Z" id="Shape" fill="#7F5B53"></path>
        </g>
    </g>
</svg>