<?xml version="1.0" encoding="UTF-8"?>
<svg xmlns="http://www.w3.org/2000/svg" xmlns:xlink="http://www.w3.org/1999/xlink" width="58px" height="58px" viewBox="0 0 58 58" version="1.1">
    <!-- Generator: Sketch 51.3 (57544) - http://www.bohemiancoding.com/sketch -->
    <title>027 - Fork And Spatula</title>
    <desc>Created with Sketch.</desc>
    <defs/>
    <g id="Page-1" stroke="none" stroke-width="1" fill="none" fill-rule="evenodd">
        <g id="027---Fork-And-Spatula" transform="translate(-1.000000, -1.000000)" fill-rule="nonzero">
            <path d="M18.143,42.858 C17.7386041,42.8579137 17.3740659,42.6142725 17.219322,42.2406546 C17.0645781,41.8670366 17.1500921,41.4369943 17.436,41.151 L39.322,19.264 C39.7143789,18.8850278 40.3380848,18.8904476 40.7238186,19.2761814 C41.1095524,19.6619152 41.1149722,20.2856211 40.736,20.678 L18.85,42.565 C18.6625073,42.7525494 18.4081948,42.8579434 18.143,42.858 Z" id="Shape" fill="#95A5A5"/>
            <path d="M43.979,44.979 C43.7138052,44.9789434 43.4594927,44.8735494 43.272,44.686 L20.43,21.843 C20.0510278,21.4506211 20.0564476,20.8269152 20.4421814,20.4411814 C20.8279152,20.0554476 21.4516211,20.0500278 21.844,20.429 L44.687,43.272 C44.9730368,43.5581229 45.0584873,43.9884079 44.9034868,44.3621167 C44.7484864,44.7358255 44.3835779,44.9793183 43.979,44.979 Z" id="Shape" fill="#7F8C8D"/>
            <path d="M47.1,1.586 L38.143,10.542 C37.5307325,11.1539685 37.1335172,11.9480481 37.011,12.805 L36.846,13.96 C36.6247599,15.5173874 37.1493162,17.0880928 38.262,18.2 L41.8,21.738 C42.9127684,22.8512299 44.4847844,23.3754822 46.043,23.153 L47.198,22.988 C48.0549519,22.8654828 48.8490315,22.4682675 49.461,21.856 L58.414,12.9 C59.1947639,12.1190003 59.1947639,10.8529997 58.414,10.072 L49.929,1.586 C49.553904,1.21075199 49.0450734,0.999927067 48.5145,0.999927067 C47.9839266,0.999927067 47.475096,1.21075199 47.1,1.586 Z" id="Shape" fill="#7F8C8D"/>
            <path d="M43.565,17.435 C43.1606041,17.4349137 42.7960659,17.1912725 42.641322,16.8176546 C42.4865781,16.4440366 42.5720921,16.0139943 42.858,15.728 L50.636,7.95 C50.8870745,7.69004342 51.2588779,7.5857874 51.6085073,7.67730284 C51.9581368,7.76881828 52.2311817,8.04186324 52.3226972,8.39149268 C52.4142126,8.74112211 52.3099566,9.11292553 52.05,9.364 L44.272,17.142 C44.0845073,17.3295494 43.8301948,17.4349434 43.565,17.435 Z" id="Shape" fill="#BDC3C7"/>
            <path d="M46.394,20.264 C45.9896041,20.2639137 45.6250659,20.0202725 45.470322,19.6466546 C45.3155781,19.2730366 45.4010921,18.8429943 45.687,18.557 L53.465,10.778 C53.8573789,10.3990278 54.4810848,10.4044476 54.8668186,10.7901814 C55.2525524,11.1759152 55.2579722,11.7996211 54.879,12.192 L47.1,19.971 C46.9127524,20.1583046 46.6588482,20.2636784 46.394,20.264 Z" id="Shape" fill="#BDC3C7"/>
            <path d="M40.736,14.606 C40.3316041,14.6059137 39.9670659,14.3622725 39.812322,13.9886546 C39.6575781,13.6150366 39.7430921,13.1849943 40.029,12.899 L47.808,5.122 C48.0590745,4.86204342 48.4308779,4.7577874 48.7805073,4.84930284 C49.1301368,4.94081828 49.4031817,5.21386324 49.4946972,5.56349268 C49.5862126,5.91312211 49.4819566,6.28492553 49.222,6.536 L41.443,14.313 C41.2559469,14.5012061 41.0013486,14.6067185 40.736,14.606 Z" id="Shape" fill="#BDC3C7"/>
            <path d="M16.894,19.722 L13.264,19.204 C12.4066927,19.0816897 11.6122326,18.6844596 11,18.072 L1.252,8.323 C1.01304862,8.08550532 0.935412898,7.73004079 1.05358815,7.41454737 C1.1717634,7.09905395 1.46382369,6.8820675 1.8,6.86 C5.806,6.671 12.89,16.651 14.768,14.772 C16.646,12.893 6.671,5.81 6.86,1.8 C6.88062731,1.46310974 7.09707347,1.16970051 7.41286423,1.05055047 C7.72865498,0.93140044 8.08497283,1.00870186 8.323,1.248 L18.072,11 C18.6829939,11.612786 19.0787908,12.407187 19.2,13.264 L19.718,16.894 L16.894,19.722 Z" id="Shape" fill="#BDC3C7"/>
            <path d="M19.7228801,17.722 C20.8274496,17.722 21.7228801,18.6174305 21.7228801,19.722 L21.7228801,21.722 L17.7228801,21.722 L17.7228801,19.722 C17.7228801,18.6174305 18.6183106,17.722 19.7228801,17.722 Z" id="Shape" fill="#95A5A5" transform="translate(19.722880, 19.722000) rotate(135.000000) translate(-19.722880, -19.722000) "/>
            <path d="M19.02,43.98 C19.0192998,44.7753814 18.7027699,45.5379306 18.14,46.1 L6.12,58.12 C4.93796098,59.2214354 3.09596111,59.1889355 1.9535128,58.0464872 C0.811064496,56.9040389 0.778564558,55.062039 1.88,53.88 L13.9,41.86 C14.7579473,41.0031188 16.0473683,40.7469672 17.1676941,41.2108521 C18.2880198,41.674737 19.0189335,42.7674334 19.02,43.98 Z" id="Shape" fill="#CB8252"/>
            <rect id="Rectangle-path" fill="#804537" transform="translate(10.250407, 49.749718) rotate(-45.000000) translate(-10.250407, -49.749718) " x="6.36140687" y="46.7517179" width="7.778" height="5.996"/>
            <path d="M58.12,58.12 C56.9487298,59.2898135 55.0512702,59.2898135 53.88,58.12 L43.98,48.22 C43.1773873,47.4721177 42.8470033,46.3457778 43.1184578,45.2828444 C43.3899124,44.2199109 44.2199109,43.3899124 45.2828444,43.1184578 C46.3457778,42.8470033 47.4721177,43.1773873 48.22,43.98 L58.12,53.88 C59.2898135,55.0512702 59.2898135,56.9487298 58.12,58.12 Z" id="Shape" fill="#CB8252"/>
            <rect id="Rectangle-path" fill="#804537" transform="translate(48.930470, 48.930000) rotate(-45.000000) translate(-48.930470, -48.930000) " x="45.9324696" y="45.932" width="5.996" height="5.996"/>
            <rect id="Rectangle-path" fill="#C03A2B" transform="translate(53.169735, 53.170000) rotate(-45.000000) translate(-53.169735, -53.170000) " x="50.1717351" y="50.172" width="5.996" height="5.996"/>
        </g>
    </g>
</svg>
