<?xml version="1.0" encoding="UTF-8"?>
<svg width="44px" height="58px" viewBox="0 0 44 58" version="1.1" xmlns="http://www.w3.org/2000/svg" xmlns:xlink="http://www.w3.org/1999/xlink">
    <!-- Generator: Sketch 50.2 (55047) - http://www.bohemiancoding.com/sketch -->
    <title>036 - Menu </title>
    <desc>Created with Sketch.</desc>
    <defs></defs>
    <g id="Page-1" stroke="none" stroke-width="1" fill="none" fill-rule="evenodd">
        <g id="036---Menu-" fill-rule="nonzero">
            <path d="M2,58 C0.8954305,58 0,57.1045695 0,56 L0,2 C0.00329480111,0.896798134 0.896798134,0.00329480111 2,0 L42,0 C43.1032019,0.00329480111 43.9967052,0.896798134 44,2 L44,56 C44,57.1045695 43.1045695,58 42,58 L2,58 Z" id="Shape" fill="#8697CB"></path>
            <path d="M12,4 C11.4477153,4 11,4.44771525 11,5 L11,8 C10.9947486,9.26678543 10.1943509,10.3937454 9,10.816 L9,5 C9,4.44771525 8.55228475,4 8,4 C7.44771525,4 7,4.44771525 7,5 L7,10.829 C5.80229835,10.4036464 5.00155063,9.27098879 5,8 L5,5 C5,4.44771525 4.55228475,4 4,4 C3.44771525,4 3,4.44771525 3,5 L3,8 C3.00299829,10.3751008 4.6735832,12.4215673 7,12.9 L7,26 C7,26.5522847 7.44771525,27 8,27 C8.55228475,27 9,26.5522847 9,26 L9,12.9 C11.3266291,12.421918 12.9973877,10.3752386 13,8 L13,5 C13,4.44771525 12.5522847,4 12,4 Z" id="Shape" fill="#ECF0F1"></path>
            <path d="M36,18 L36,4 C38.5064321,5.43296175 40.0379447,8.11310865 40,11 C40.0379447,13.8868913 38.5064321,16.5670383 36,18" id="Shape" fill="#D1D4D1"></path>
            <circle id="Oval" fill="#ECF0F1" cx="23" cy="17" r="9"></circle>
            <path d="M24,12 C24,11.4477153 23.5522847,11 23,11 C19.6876624,11.0033074 17.0033074,13.6876624 17,17 C17,17.5522847 17.4477153,18 18,18 C18.5522847,18 19,17.5522847 19,17 C19,14.790861 20.790861,13 23,13 C23.2652165,13 23.5195704,12.8946432 23.7071068,12.7071068 C23.8946432,12.5195704 24,12.2652165 24,12 Z" id="Shape" fill="#D1D4D1"></path>
            <path d="M28,16 C27.4477153,16 27,16.4477153 27,17 C27,19.209139 25.209139,21 23,21 C22.4477153,21 22,21.4477153 22,22 C22,22.5522847 22.4477153,23 23,23 C26.3123376,22.9966926 28.9966926,20.3123376 29,17 C29,16.4477153 28.5522847,16 28,16 Z" id="Shape" fill="#D1D4D1"></path>
            <path d="M29,34 L36,34 C36.5522847,34 37,33.5522847 37,33 C37,32.4477153 36.5522847,32 36,32 L29,32 C28.4477153,32 28,32.4477153 28,33 C28,33.5522847 28.4477153,34 29,34 Z" id="Shape" fill="#3D324C"></path>
            <path d="M8,34 L25,34 C25.5522847,34 26,33.5522847 26,33 C26,32.4477153 25.5522847,32 25,32 L8,32 C7.44771525,32 7,32.4477153 7,33 C7,33.5522847 7.44771525,34 8,34 Z" id="Shape" fill="#3D324C"></path>
            <path d="M36,37 L26,37 C25.4477153,37 25,37.4477153 25,38 C25,38.5522847 25.4477153,39 26,39 L36,39 C36.5522847,39 37,38.5522847 37,38 C37,37.4477153 36.5522847,37 36,37 Z" id="Shape" fill="#3D324C"></path>
            <path d="M8,39 L22,39 C22.5522847,39 23,38.5522847 23,38 C23,37.4477153 22.5522847,37 22,37 L8,37 C7.44771525,37 7,37.4477153 7,38 C7,38.5522847 7.44771525,39 8,39 Z" id="Shape" fill="#3D324C"></path>
            <path d="M36,42 L30,42 C29.4477153,42 29,42.4477153 29,43 C29,43.5522847 29.4477153,44 30,44 L36,44 C36.5522847,44 37,43.5522847 37,43 C37,42.4477153 36.5522847,42 36,42 Z" id="Shape" fill="#3D324C"></path>
            <path d="M26,42 L8,42 C7.44771525,42 7,42.4477153 7,43 C7,43.5522847 7.44771525,44 8,44 L26,44 C26.5522847,44 27,43.5522847 27,43 C27,42.4477153 26.5522847,42 26,42 Z" id="Shape" fill="#3D324C"></path>
            <path d="M36,47 L28,47 C27.4477153,47 27,47.4477153 27,48 C27,48.5522847 27.4477153,49 28,49 L36,49 C36.5522847,49 37,48.5522847 37,48 C37,47.4477153 36.5522847,47 36,47 Z" id="Shape" fill="#3D324C"></path>
            <path d="M24,47 L8,47 C7.44771525,47 7,47.4477153 7,48 C7,48.5522847 7.44771525,49 8,49 L24,49 C24.5522847,49 25,48.5522847 25,48 C25,47.4477153 24.5522847,47 24,47 Z" id="Shape" fill="#3D324C"></path>
            <path d="M36,27 C35.4477153,27 35,26.5522847 35,26 L35,5 C35,4.44771525 35.4477153,4 36,4 C36.5522847,4 37,4.44771525 37,5 L37,26 C37,26.5522847 36.5522847,27 36,27 Z" id="Shape" fill="#ECF0F1"></path>
        </g>
    </g>
</svg>