<?xml version="1.0" encoding="UTF-8"?>
<svg xmlns="http://www.w3.org/2000/svg" xmlns:xlink="http://www.w3.org/1999/xlink" width="44px" height="58px" viewBox="0 0 44 58" version="1.1">
    <!-- Generator: Sketch 52.6 (67491) - http://www.bohemiancoding.com/sketch -->
    <title>042 - Shopping List</title>
    <desc>Created with Sketch.</desc>
    <g id="Page-1" stroke="none" stroke-width="1" fill="none" fill-rule="evenodd">
        <g id="042---Shopping-List">
            <path d="M17,5 C17,2.23857625 19.2385763,1.33226763e-15 22,8.8817842e-16 C24.7614237,4.4408921e-16 27,2.23857625 27,5 L22,7 L17,5 Z" id="Path" fill="#95A5A5"/>
            <path d="M44,9 L44,54 C44,56.209139 42.209139,58 40,58 L4,58 C1.790861,58 0,56.209139 0,54 L0,9 C0,6.790861 1.790861,5 4,5 L10,5 L10,11 C10.0032948,12.1032019 10.8967981,12.9967052 12,13 L32,13 C33.1032019,12.9967052 33.9967052,12.1032019 34,11 L34,5 L40,5 C41.060866,5 42.0782816,5.42142736 42.8284271,6.17157288 C43.5785726,6.92171839 44,7.93913404 44,9 Z" id="Path" fill="#F29C1F"/>
            <path d="M34,9 L38,9 C39.1032019,9.0032948 39.9967052,9.89679813 40,11 L40,52 C39.9967052,53.1032019 39.1032019,53.9967052 38,54 L6,54 C4.89679813,53.9967052 4.0032948,53.1032019 4,52 L4,11 C4.0032948,9.89679813 4.89679813,9.0032948 6,9 L34,9 Z" id="Path" fill="#F9EAB0"/>
            <path d="M13,27 L9,27 C7.8954305,27 7,26.1045695 7,25 L7,21 C7,19.8954305 7.8954305,19 9,19 L13,19 C14.1045695,19 15,19.8954305 15,21 L15,25 C15,26.1045695 14.1045695,27 13,27 Z M9,21 L9,25 L13,25 L13,21 L9,21 Z" id="Shape" fill="#E57E25" fill-rule="nonzero"/>
            <path d="M36,22 L18,22 C17.4477153,22 17,21.5522847 17,21 C17,20.4477153 17.4477153,20 18,20 L36,20 C36.5522847,20 37,20.4477153 37,21 C37,21.5522847 36.5522847,22 36,22 Z" id="Path" fill="#E57E25"/>
            <path d="M29,26 L18,26 C17.4477153,26 17,25.5522847 17,25 C17,24.4477153 17.4477153,24 18,24 L29,24 C29.5522847,24 30,24.4477153 30,25 C30,25.5522847 29.5522847,26 29,26 Z" id="Path" fill="#E57E25"/>
            <path d="M13,37 L9,37 C7.8954305,37 7,36.1045695 7,35 L7,31 C7,29.8954305 7.8954305,29 9,29 L13,29 C14.1045695,29 15,29.8954305 15,31 L15,35 C15,36.1045695 14.1045695,37 13,37 Z M9,31 L9,35 L13,35 L13,31 L9,31 Z" id="Shape" fill="#E57E25" fill-rule="nonzero"/>
            <path d="M36,32 L18,32 C17.4477153,32 17,31.5522847 17,31 C17,30.4477153 17.4477153,30 18,30 L36,30 C36.5522847,30 37,30.4477153 37,31 C37,31.5522847 36.5522847,32 36,32 Z" id="Path" fill="#E57E25"/>
            <path d="M29,36 L18,36 C17.4477153,36 17,35.5522847 17,35 C17,34.4477153 17.4477153,34 18,34 L29,34 C29.5522847,34 30,34.4477153 30,35 C30,35.5522847 29.5522847,36 29,36 Z" id="Path" fill="#E57E25"/>
            <path d="M13,47 L9,47 C7.8954305,47 7,46.1045695 7,45 L7,41 C7,39.8954305 7.8954305,39 9,39 L13,39 C14.1045695,39 15,39.8954305 15,41 L15,45 C15,46.1045695 14.1045695,47 13,47 Z M9,41 L9,45 L13,45 L13,41 L9,41 Z" id="Shape" fill="#E57E25" fill-rule="nonzero"/>
            <path d="M36,42 L18,42 C17.4477153,42 17,41.5522847 17,41 C17,40.4477153 17.4477153,40 18,40 L36,40 C36.5522847,40 37,40.4477153 37,41 C37,41.5522847 36.5522847,42 36,42 Z" id="Path" fill="#E57E25"/>
            <path d="M29,46 L18,46 C17.4477153,46 17,45.5522847 17,45 C17,44.4477153 17.4477153,44 18,44 L29,44 C29.5522847,44 30,44.4477153 30,45 C30,45.5522847 29.5522847,46 29,46 Z" id="Path" fill="#E57E25"/>
            <path d="M34,5 L34,11 C33.9967052,12.1032019 33.1032019,12.9967052 32,13 L12,13 C10.8967981,12.9967052 10.0032948,12.1032019 10,11 L10,5 L34,5 Z" id="Path" fill="#BDC3C7"/>
            <path d="M28,10 L16,10 C15.4477153,10 15,9.55228475 15,9 C15,8.44771525 15.4477153,8 16,8 L28,8 C28.5522847,8 29,8.44771525 29,9 C29,9.55228475 28.5522847,10 28,10 Z" id="Path" fill="#7F8C8D"/>
        </g>
    </g>
</svg>
