<?xml version="1.0" encoding="UTF-8"?>
<svg width="49px" height="59px" viewBox="0 0 49 59" version="1.1" xmlns="http://www.w3.org/2000/svg" xmlns:xlink="http://www.w3.org/1999/xlink">
    <!-- Generator: Sketch 51.3 (57544) - http://www.bohemiancoding.com/sketch -->
    <title>038 - Barbeque Cook Book</title>
    <desc>Created with Sketch.</desc>
    <defs></defs>
    <g id="Page-1" stroke="none" stroke-width="1" fill="none" fill-rule="evenodd">
        <g id="038---Barbeque-Cook-Book" fill-rule="nonzero">
            <path d="M47,58 L6,58 C3.23857625,58 1,55.7614237 1,53 C1,50.2385763 3.23857625,48 6,48 L47,48 C45.34,48 44,50.24 44,53 C44,55.76 45.34,58 47,58 Z" id="Shape" fill="#F5EFCA"></path>
            <path d="M49,46 L49,58 L46,58 C44.34,58 43,55.76 43,53 C43,50.24 44.34,48 46,48 L47,48 C48.1032019,47.9967052 48.9967052,47.1032019 49,46 Z" id="Shape" fill="#802F34"></path>
            <path d="M10,54 L6,54 C5.44771525,54 5,53.5522847 5,53 C5,52.4477153 5.44771525,52 6,52 L10,52 C10.5522847,52 11,52.4477153 11,53 C11,53.5522847 10.5522847,54 10,54 Z" id="Shape" fill="#CBB292"></path>
            <path d="M39,54 L14,54 C13.4477153,54 13,53.5522847 13,53 C13,52.4477153 13.4477153,52 14,52 L39,52 C39.5522847,52 40,52.4477153 40,53 C40,53.5522847 39.5522847,54 39,54 Z" id="Shape" fill="#CBB292"></path>
            <path d="M49,2 L49,48 L5,48 C2.23857625,48 0,50.2385763 0,53 L0,5 C-8.8817842e-16,2.23857625 2.23857625,6.66133815e-16 5,0 L47,0 C48.1032019,0.00329480111 48.9967052,0.896798134 49,2 Z" id="Shape" fill="#E64C3C"></path>
            <path d="M45,9 C44.4477153,9 44,8.55228475 44,8 L44,5 L41,5 C40.4477153,5 40,4.55228475 40,4 C40,3.44771525 40.4477153,3 41,3 L45,3 C45.5522847,3 46,3.44771525 46,4 L46,8 C46,8.55228475 45.5522847,9 45,9 Z" id="Shape" fill="#FFFFFF"></path>
            <path d="M45,45 L41,45 C40.4477153,45 40,44.5522847 40,44 C40,43.4477153 40.4477153,43 41,43 L44,43 L44,40 C44,39.4477153 44.4477153,39 45,39 C45.5522847,39 46,39.4477153 46,40 L46,44 C46,44.5522847 45.5522847,45 45,45 Z" id="Shape" fill="#FFFFFF"></path>
            <path d="M48,59 L6,59 C2.6862915,59 0,56.3137085 0,53 C-8.8817842e-16,49.6862915 2.6862915,47 6,47 L48,47 C48.5522847,47 49,47.4477153 49,48 C49,48.5522847 48.5522847,49 48,49 L6,49 C3.790861,49 2,50.790861 2,53 C2,55.209139 3.790861,57 6,57 L48,57 C48.5522847,57 49,57.4477153 49,58 C49,58.5522847 48.5522847,59 48,59 Z" id="Shape" fill="#C03A2B"></path>
            <path d="M19.933,31.318 C19.5286041,31.3179137 19.1640659,31.0742725 19.009322,30.7006546 C18.8545781,30.3270366 18.9400921,29.8969943 19.226,29.611 L29.126,19.711 C29.5183789,19.3320278 30.1420848,19.3374476 30.5278186,19.7231814 C30.9135524,20.1089152 30.9189722,20.7326211 30.54,21.125 L20.64,31.025 C20.4525073,31.2125494 20.1981948,31.3179434 19.933,31.318 Z" id="Shape" fill="#95A5A5"></path>
            <path d="M42.67,16.28 L35.59,23.35 C35.2163108,23.7244562 34.7090189,23.9348881 34.18,23.9348881 C33.6509811,23.9348881 33.1436892,23.7244562 32.77,23.35 L27,17.59 C26.6244459,17.2148635 26.4134267,16.7058185 26.4134267,16.175 C26.4134267,15.6441815 26.6244459,15.1351365 27,14.76 L34.08,7.69 C34.4536892,7.31554382 34.9609811,7.10511194 35.49,7.10511194 C36.0190189,7.10511194 36.5263108,7.31554382 36.9,7.69 L42.67,13.45 C43.0455541,13.8251365 43.2565733,14.3341815 43.2565733,14.865 C43.2565733,15.3958185 43.0455541,15.9048635 42.67,16.28 Z" id="Shape" fill="#BDC3C7"></path>
            <path d="M29.962,31.318 C29.6968052,31.3179434 29.4424927,31.2125494 29.255,31.025 L19.355,21.125 C19.1024132,20.8722346 19.0038621,20.5039163 19.09647,20.158787 C19.1890779,19.8136577 19.4587754,19.5441509 19.80397,19.451787 C20.1491647,19.3594232 20.5174132,19.4582346 20.77,19.711 L30.67,29.611 C30.9559079,29.8969943 31.0414219,30.3270366 30.886678,30.7006546 C30.7319341,31.0742725 30.3673959,31.3179137 29.963,31.318 L29.962,31.318 Z" id="Shape" fill="#7F8C8D"></path>
            <path d="M20.12,20.36 L20.11,20.37 C18.9723483,21.508018 17.4291415,22.1473806 15.82,22.1473806 C14.2108585,22.1473806 12.6676517,21.508018 11.53,20.37 L7.33,16.18 C6.95444591,15.8048635 6.74342669,15.2958185 6.74342669,14.765 C6.74342669,14.2341815 6.95444591,13.7251365 7.33,13.35 L7.34,13.35 C7.71368919,12.9755438 8.22098106,12.7651119 8.75,12.7651119 C9.27901894,12.7651119 9.78631081,12.9755438 10.16,13.35 L14.36,17.54 C14.7463314,17.9288789 15.2718406,18.1475642 15.82,18.1475642 C16.3681594,18.1475642 16.8936686,17.9288789 17.28,17.54 L17.29,17.53 C17.6788789,17.1436686 17.8975642,16.6181594 17.8975642,16.07 C17.8975642,15.5218406 17.6788789,14.9963314 17.29,14.61 L13.1,10.41 C12.5962555,9.90625552 12.3995209,9.17203194 12.5839042,8.48390418 C12.7682875,7.79577642 13.3057764,7.25828746 13.9939042,7.07390418 C14.6820319,6.8895209 15.4162555,7.08625552 15.92,7.59 L20.12,11.78 C21.258018,12.9176517 21.8973806,14.4608585 21.8973806,16.07 C21.8973806,17.6791415 21.258018,19.2223483 20.12,20.36 Z" id="Shape" fill="#BDC3C7"></path>
            <path d="M20.64,33.85 L14.28,40.22 C13.9048635,40.5955541 13.3958185,40.8065733 12.865,40.8065733 C12.3341815,40.8065733 11.8251365,40.5955541 11.45,40.22 L10.03,38.8 C9.65444591,38.4248635 9.44342669,37.9158185 9.44342669,37.385 C9.44342669,36.8541815 9.65444591,36.3451365 10.03,35.97 L16.4,29.61 C16.7751365,29.2344459 17.2841815,29.0234267 17.815,29.0234267 C18.3458185,29.0234267 18.8548635,29.2344459 19.23,29.61 L20.64,31.03 C21.0144562,31.4036892 21.2248881,31.9109811 21.2248881,32.44 C21.2248881,32.9690189 21.0144562,33.4763108 20.64,33.85 Z" id="Shape" fill="#F29C1F"></path>
            <path d="M39.86,38.8 L38.45,40.22 C38.0748635,40.5955541 37.5658185,40.8065733 37.035,40.8065733 C36.5041815,40.8065733 35.9951365,40.5955541 35.62,40.22 L29.26,33.85 C28.8810562,33.4787124 28.6675122,32.9705213 28.6675122,32.44 C28.6675122,31.9094787 28.8810562,31.4012876 29.26,31.03 L30.67,29.61 C31.0451365,29.2344459 31.5541815,29.0234267 32.085,29.0234267 C32.6158185,29.0234267 33.1248635,29.2344459 33.5,29.61 L39.86,35.97 C40.2355541,36.3451365 40.4465733,36.8541815 40.4465733,37.385 C40.4465733,37.9158185 40.2355541,38.4248635 39.86,38.8 Z" id="Shape" fill="#F29C1F"></path>
        </g>
    </g>
</svg>