<?xml version="1.0" encoding="UTF-8"?>
<svg xmlns="http://www.w3.org/2000/svg" xmlns:xlink="http://www.w3.org/1999/xlink" width="58px" height="59px" viewBox="0 0 58 59" version="1.1">
    <!-- Generator: Sketch 51.1 (57501) - http://www.bohemiancoding.com/sketch -->
    <title>017 - Pouring Mixture</title>
    <desc>Created with Sketch.</desc>
    <defs/>
    <g id="Page-1" stroke="none" stroke-width="1" fill="none" fill-rule="evenodd">
        <g id="017---Pouring-Mixture" fill-rule="nonzero">
            <path d="M57.89,34.8 C57.31,38.19 54.22,51.48 40.45,57.45 C38.0021305,58.4872488 35.3685213,59.0146512 32.71,59 L25.29,59 C22.6314787,59.0146512 19.9978695,58.4872488 17.55,57.45 C3.78,51.48 0.69,38.19 0.11,34.8 L57.89,34.8 Z" id="Shape" fill="#3B97D3"/>
            <path d="M1.46,36.62 C0.845711184,36.1544234 0.377310833,35.5229504 0.11,34.8 C0.0393114501,34.5664452 0.00227232558,34.3240073 0,34.08 L0,34.04 C0.08,29.6 13.03,26 29,26 C44.97,26 57.9,29.59 57.99,34.03 C57.9980837,34.0453542 58.0015564,34.0627178 58,34.08 C57.9977277,34.3240073 57.9606885,34.5664452 57.89,34.8 C57.6226892,35.5229504 57.1542888,36.1544234 56.54,36.62 L1.46,36.62 Z" id="Shape" fill="#2980BA"/>
            <path d="M56.54,36.62 C52.72,39.85 41.83,42.17 29,42.17 C16.17,42.17 5.28,39.85 1.46,36.62 C3.84,32.86 15.27,30 29,30 C42.73,30 54.16,32.86 56.54,36.62 Z" id="Shape" fill="#B0D3F0"/>
            <path d="M21.336,17 C21.0815009,17.0001237 20.8365298,16.9032082 20.651,16.729 C19.1877334,15.3492615 18.2358558,13.5139004 17.951,11.523 C17.4028062,7.52508297 19.5392258,3.64027728 23.209,1.962 C23.9396024,1.62509267 24.7137878,1.39216385 25.509,1.27 L33.145,0.1 C37.5186651,-0.558088672 41.7075274,2.11084922 42.959,6.353 C43.1007657,6.83204708 42.8672365,7.34222506 42.412,7.548 L21.748,16.911 C21.618618,16.9698079 21.4781199,17.0001583 21.336,17 Z M34.479,2 C34.1341125,1.99994114 33.7897422,2.02668835 33.449,2.08 L25.818,3.246 C25.2038849,3.34089971 24.6060817,3.52131779 24.042,3.782 C21.1763664,5.09053207 19.5073849,8.12290127 19.935,11.244 C20.1230853,12.5618087 20.6888875,13.7969177 21.564,14.8 L40.744,6.112 C39.6512711,3.62411875 37.1962498,2.01277832 34.479,2 Z" id="Shape" fill="#5E5F62"/>
            <path d="M24,30 L23.7,29.34 L22.27,26.22 L17.94,16.8 C17.8390985,16.5775546 17.8320748,16.3238376 17.9205152,16.0961505 C18.0089556,15.8684635 18.1854005,15.6860111 18.41,15.59 L30.85,10.29 L32.69,9.51 L34.5,8.74 L36.34,7.96 L38.15,7.19 L39.99,6.4 L41.8,5.63 L43.64,4.85 L45.45,4.08 L47.29,3.3 L48.95,2.59 C49.4254068,2.38088888 49.9811438,2.58377698 50.21,3.05 L57.92,19.87 C58.0211895,20.0885747 58.0305446,20.3385891 57.9459725,20.5641147 C57.8614004,20.7896403 57.689959,20.971856 57.47,21.07 L53.48,22.9 L24,30 Z" id="Shape" fill="#D1D4D1"/>
            <path d="M35.98,18.88 C35.8476178,18.9383754 35.704678,18.9690054 35.56,18.97 C35.1717306,18.9727797 34.8169502,18.7505545 34.65,18.4 L30.85,10.29 L32.69,9.51 L36.46,17.55 C36.5743324,17.7897877 36.5879248,18.0653635 36.4977444,18.3152386 C36.4075639,18.5651136 36.2211151,18.7684941 35.98,18.88 Z" id="Shape" fill="#A5A5A4"/>
            <path d="M39.56,17.18 C39.4276178,17.2383754 39.284678,17.2690054 39.14,17.27 C38.7517306,17.2727797 38.3969502,17.0505545 38.23,16.7 L34.5,8.74 L36.34,7.96 L40.05,15.85 C40.2797331,16.3526655 40.0609409,16.9465302 39.56,17.18 Z" id="Shape" fill="#A5A5A4"/>
            <path d="M43.14,15.48 C43.0076178,15.5383754 42.864678,15.5690054 42.72,15.57 C42.3289173,15.5727371 41.9726502,15.3456657 41.81,14.99 L38.15,7.19 L39.99,6.4 L43.63,14.15 C43.8597331,14.6526655 43.6409409,15.2465302 43.14,15.48 Z" id="Shape" fill="#A5A5A4"/>
            <path d="M46.72,13.78 C46.5876178,13.8383754 46.444678,13.8690054 46.3,13.87 C45.9089173,13.8727371 45.5526502,13.6456657 45.39,13.29 L41.8,5.63 L43.64,4.85 L47.21,12.45 C47.4397331,12.9526655 47.2209409,13.5465302 46.72,13.78 Z" id="Shape" fill="#A5A5A4"/>
            <path d="M50.3,12.08 C50.1679467,12.1393846 50.0247916,12.1700607 49.88,12.17 C49.4889173,12.1727371 49.1326502,11.9456657 48.97,11.59 L45.45,4.08 L47.29,3.3 L50.79,10.75 C51.0197331,11.2526655 50.8009409,11.8465302 50.3,12.08 Z" id="Shape" fill="#A5A5A4"/>
            <path d="M27,42 L27,42.15 C23.7000906,42.0952197 20.4054333,41.8648941 17.13,41.46 L17.15,41.3 C17.87,34.98 22.78,30.93 23.81,30.15 L23.82,30.14 C23.8997142,30.1316789 23.9798699,30.1283391 24.06,30.13 L25.41,33.07 L26.03,34.43 L26.89,36.18 C25.8352189,37.9796844 25.8738061,40.2177462 26.99,41.98 C26.99,41.99 27,41.99 27,42 Z" id="Shape" fill="#67B9CC"/>
            <path d="M53.48,22.9 L44.13,27.18 L40.01,29.06 L37.16,30.37 L31.16,33.12 L30.98,33.33 L27.46,37.34 L26.03,34.43 L25.41,33.07 L24.06,30.13 L24,30 L38,24 C44,21.43 51.47,22.53 53.48,22.9 Z" id="Shape" fill="#90BAE1"/>
        </g>
    </g>
</svg>
