<?xml version="1.0" encoding="UTF-8"?>
<svg width="58px" height="58px" viewBox="0 0 58 58" version="1.1" xmlns="http://www.w3.org/2000/svg" xmlns:xlink="http://www.w3.org/1999/xlink">
    <!-- Generator: Sketch 51.3 (57544) - http://www.bohemiancoding.com/sketch -->
    <title>003 - Organic Recipies</title>
    <desc>Created with Sketch.</desc>
    <defs></defs>
    <g id="Page-1" stroke="none" stroke-width="1" fill="none" fill-rule="evenodd">
        <g id="003---Organic-Recipies" fill-rule="nonzero">
            <path d="M53,8 L56,8 C57.1045695,8 58,8.8954305 58,10 L58,56 C58,57.1045695 57.1045695,58 56,58 L2,58 C0.8954305,58 2.22044605e-16,57.1045695 0,56 L0,10 C-1.11022302e-16,8.8954305 0.8954305,8 2,8 L53,8 Z" id="Shape" fill="#2980BA"></path>
            <path d="M51.3448,8 L54.1379,8 C55.2037896,8.03939248 56.0367281,8.93401526 56,10 L56,56 C56.0367281,57.0659847 55.2037896,57.9606075 54.1379,58 L3.8621,58 C2.79621039,57.9606075 1.96327186,57.0659847 2,56 L2,10 C1.96327186,8.93401526 2.79621039,8.03939248 3.8621,8 L51.3448,8 Z" id="Shape" fill="#3B97D3"></path>
            <path d="M52,-1.44328993e-15 L32,-1.44328993e-15 C31.204025,-0.00106342828 30.4403452,0.314665587 29.8775054,0.87750541 C29.3146656,1.44034523 28.9989366,2.204025 29,3 C29.0010634,2.204025 28.6853344,1.44034523 28.1224946,0.87750541 C27.5596548,0.314665587 26.795975,-0.00106342828 26,-1.77635684e-15 L6,-1.77635684e-15 C5.44837635,0.00159278994 5.00159279,0.448376352 5,1 L5,53 C5.00159279,53.5516236 5.44837635,53.9984072 6,54 L52,54 C52.5516236,53.9984072 52.9984072,53.5516236 53,53 L53,1 C52.9984072,0.448376352 52.5516236,0.00159278994 52,-1.44328993e-15 Z" id="Shape" fill="#F5EFCA"></path>
            <path d="M53,1 L53,50 L32,50 C31.204025,49.9989366 30.4403452,50.3146656 29.8775054,50.8775054 C29.3146656,51.4403452 28.9989366,52.204025 28.9999973,53 L29,3 C28.9989366,2.204025 29.3146656,1.44034523 29.8775054,0.87750541 C30.4403452,0.314665587 31.204025,-0.00106342828 32,-1.88737914e-15 L52,-1.88737914e-15 C52.5516236,0.00159278994 52.9984072,0.448376352 53,1 Z" id="Shape" fill="#F9EAB0"></path>
            <path d="M48,15.23 C46.42,17.57 43.7,18.57 41.63,17.67 C41.4434436,17.5967251 41.2656712,17.5028076 41.1,17.39 C41.0849587,17.3875078 41.0710185,17.3805377 41.06,17.37 C40.6760118,17.1108336 40.340856,16.785834 40.07,16.41 C39.9480434,16.2395108 39.8409819,16.0588446 39.75,15.87 C38.9388898,14.0054895 39.1787539,11.8505204 40.38,10.21 C41.65,8.31 45.59,6.92 47.56,6.32 C47.8460176,6.23378622 48.1556239,6.28039388 48.4035836,6.44699182 C48.6515433,6.61358977 48.8117139,6.88261339 48.84,7.18 C49.05,9.21 49.27,13.33 48,15.23 Z" id="Shape" fill="#24AE5F"></path>
            <path d="M43.79,13.94 L41.35,17 C41.3349587,16.9975078 41.3210185,16.9905377 41.31,16.98 C40.9260118,16.7208336 40.590856,16.395834 40.32,16.02 C40.1980434,15.8495108 40.0909819,15.6688446 40,15.48 L42.21,12.72 C42.4276706,12.4369866 42.7799371,12.2917992 43.1338093,12.3392499 C43.4876815,12.3867006 43.7892554,12.6195615 43.9246788,12.9499213 C44.0601022,13.2802811 44.0087466,13.6578174 43.79,13.94 Z" id="Shape" fill="#4C8056"></path>
            <path d="M48,24 L34,24 C33.4477153,24 33,23.5522847 33,23 C33,22.4477153 33.4477153,22 34,22 L48,22 C48.5522847,22 49,22.4477153 49,23 C49,23.5522847 48.5522847,24 48,24 Z" id="Shape" fill="#E4C05C"></path>
            <path d="M48,34 L34,34 C33.4477153,34 33,33.5522847 33,33 C33,32.4477153 33.4477153,32 34,32 L48,32 C48.5522847,32 49,32.4477153 49,33 C49,33.5522847 48.5522847,34 48,34 Z" id="Shape" fill="#E4C05C"></path>
            <path d="M40,44 L34,44 C33.4477153,44 33,43.5522847 33,43 C33,42.4477153 33.4477153,42 34,42 L40,42 C40.5522847,42 41,42.4477153 41,43 C41,43.5522847 40.5522847,44 40,44 Z" id="Shape" fill="#E4C05C"></path>
            <path d="M48,29 L46,29 C45.4477153,29 45,28.5522847 45,28 C45,27.4477153 45.4477153,27 46,27 L48,27 C48.5522847,27 49,27.4477153 49,28 C49,28.5522847 48.5522847,29 48,29 Z" id="Shape" fill="#E4C05C"></path>
            <path d="M42,29 L34,29 C33.4477153,29 33,28.5522847 33,28 C33,27.4477153 33.4477153,27 34,27 L42,27 C42.5522847,27 43,27.4477153 43,28 C43,28.5522847 42.5522847,29 42,29 Z" id="Shape" fill="#E4C05C"></path>
            <path d="M36,39 L34,39 C33.4477153,39 33,38.5522847 33,38 C33,37.4477153 33.4477153,37 34,37 L36,37 C36.5522847,37 37,37.4477153 37,38 C37,38.5522847 36.5522847,39 36,39 Z" id="Shape" fill="#E4C05C"></path>
            <path d="M48,39 L40,39 C39.4477153,39 39,38.5522847 39,38 C39,37.4477153 39.4477153,37 40,37 L48,37 C48.5522847,37 49,37.4477153 49,38 C49,38.5522847 48.5522847,39 48,39 Z" id="Shape" fill="#E4C05C"></path>
            <path d="M20,22.23 L20,43 C20,44.6568542 18.6568542,46 17,46 C15.3431458,46 14,44.6568542 14,43 L14,22.23" id="Shape" fill="#A56A43"></path>
            <path d="M29,53 L29.0000027,54 L6,54 C5.44837635,53.9984072 5.00159279,53.5516236 5,53 L5,49.9999973 L26,50 C26.795975,49.9989366 27.5596548,50.3146656 28.1224946,50.8775054 C28.6853344,51.4403452 29.0010634,52.204025 29,53 Z" id="Shape" fill="#F3D55B"></path>
            <path d="M53,49.9999973 L53,53 C52.9984072,53.5516236 52.5516236,53.9984072 52,54 L28.9999973,54 L29,53 C28.9989366,52.204025 29.3146656,51.4403452 29.8775054,50.8775054 C30.4403452,50.3146656 31.204025,49.9989366 32,50 L53,49.9999973 Z" id="Shape" fill="#F0C419"></path>
            <path d="M24,15 C24,19.4183 20.866,23 17,23 C13.134,23 10,19.4183 10,15 C10,10.5817 13.134,5 17,5 C20.866,5 24,10.5817 24,15 Z" id="Shape" fill="#CB8252"></path>
            <path d="M22,14.1944 C22.1450759,17.1062875 19.9110274,19.5885835 17,19.75 C14.0889726,19.5885835 11.8549241,17.1062875 12,14.1944 C12,11.1262 14.2386,7.25 17,7.25 C19.7614,7.25 22,11.1262 22,14.1944 Z" id="Shape" fill="#CF976A"></path>
            <path d="M41.93,16.41 C41.659144,16.785834 41.3239882,17.1108336 40.94,17.37 C40.7609272,17.4895123 40.5698973,17.5900544 40.37,17.67 C38.3,18.57 35.58,17.57 34,15.23 C32.7309,13.3263 32.9535,9.2067 33.1575,7.1778 C33.1862966,6.87989169 33.3475345,6.6107256 33.5966063,6.44476822 C33.8456781,6.27881084 34.1561764,6.23365744 34.4422,6.3218 C36.4094,6.9183 40.3484,8.31 41.62,10.21 C42.9846632,12.0176639 43.1075413,14.4752259 41.93,16.41 Z" id="Shape" fill="#4FBA6F"></path>
            <path d="M41.93,16.41 C41.659144,16.785834 41.3239882,17.1108336 40.94,17.37 C40.7609272,17.4895123 40.5698973,17.5900544 40.37,17.67 L37.21,13.61 C36.8743891,13.1736418 36.9554415,12.5479433 37.3911601,12.2115024 C37.8268787,11.8750615 38.4527303,11.9549227 38.79,12.39 L41.93,16.41 Z" id="Shape" fill="#4C8056"></path>
        </g>
    </g>
</svg>