<?xml version="1.0" encoding="UTF-8"?>
<svg xmlns="http://www.w3.org/2000/svg" xmlns:xlink="http://www.w3.org/1999/xlink" width="50px" height="58px" viewBox="0 0 50 58" version="1.1">
    <!-- Generator: Sketch 49.3 (51167) - http://www.bohemiancoding.com/sketch -->
    <title>007 - Till </title>
    <desc>Created with Sketch.</desc>
    <defs/>
    <g id="Page-1" stroke="none" stroke-width="1" fill="none" fill-rule="evenodd">
        <g id="007---Till-" fill-rule="nonzero">
            <rect id="Rectangle-path" fill="#3F5C6C" x="4" y="43" width="42" height="6"/>
            <rect id="Rectangle-path" fill="#3F5C6C" x="8" y="11" width="12" height="7"/>
            <path d="M43,17 L45.20991,17 C46.2290104,16.9999989 47.0851407,17.7662725 47.19768,18.77914 L49.87662,42.88957 C49.9080312,43.1722743 49.8175642,43.4549778 49.6278616,43.6669243 C49.438159,43.8788708 49.167174,44.0000017 48.88273,44 L1.11727,44 C0.832826006,44.0000017 0.561841044,43.8788708 0.372138431,43.6669243 C0.182435818,43.4549778 0.0919688497,43.1722743 0.12338,42.88957 L2.80232,18.77914 C2.91485926,17.7662725 3.77098955,16.9999989 4.79009,17 L43,17 Z" id="Shape" fill="#547580"/>
            <rect id="Rectangle-path" fill="#547580" x="4" y="0" width="20" height="12" rx="2"/>
            <path d="M1,48 L49,48 C49.5522847,48 50,48.4477153 50,49 L50,54 C50,56.209139 48.209139,58 46,58 L4,58 C1.790861,58 0,56.209139 0,54 L0,49 C0,48.4477153 0.44771525,48 1,48 Z" id="Shape" fill="#547580"/>
            <path d="M44,26 L30,26 C29.4477153,26 29,25.5522847 29,25 C29,24.4477153 29.4477153,24 30,24 L44,24 C44.5522847,24 45,24.4477153 45,25 C45,25.5522847 44.5522847,26 44,26 Z" id="Shape" fill="#35495E"/>
            <path d="M15,5 L10,5 C9.44771525,5 9,4.55228475 9,4 C9,3.44771525 9.44771525,3 10,3 L15,3 C15.5522847,3 16,3.44771525 16,4 C16,4.55228475 15.5522847,5 15,5 Z" id="Shape" fill="#84B5CB"/>
            <path d="M20,5 L19,5 C18.4477153,5 18,4.55228475 18,4 C18,3.44771525 18.4477153,3 19,3 L20,3 C20.5522847,3 21,3.44771525 21,4 C21,4.55228475 20.5522847,5 20,5 Z" id="Shape" fill="#84B5CB"/>
            <path d="M25,29 L7.13278,29 C6.84595556,28.9999994 6.57293957,28.8768378 6.38311489,28.6618149 C6.19329021,28.4467919 6.10493377,28.1606108 6.1405,27.876 L6.8905,21.876 C6.95303763,21.3755566 7.37844424,21.0000011 7.88278,21 L25,21 C25.5522847,21 26,21.4477153 26,22 L26,28 C26,28.5522847 25.5522847,29 25,29 Z" id="Shape" fill="#71C285"/>
            <rect id="Rectangle-path" fill="#35495E" x="14" y="33" width="4" height="4" rx="1"/>
            <rect id="Rectangle-path" fill="#35495E" x="6" y="33" width="4" height="4" rx="1"/>
            <rect id="Rectangle-path" fill="#35495E" x="22" y="33" width="4" height="4" rx="1"/>
            <rect id="Rectangle-path" fill="#BDC3C7" x="33" y="29" width="8" height="11" rx="1"/>
            <circle id="Oval" fill="#BDC3C7" cx="25" cy="53" r="2"/>
            <path d="M31,7.41421 L31,25 L43,25 L43,7.41421 C42.9999986,7.00974758 42.7563549,6.64511203 42.3826797,6.49033248 C42.0090045,6.33555292 41.5788868,6.42111057 41.29289,6.70711 L40.70711,7.29289 C40.5195734,7.48042835 40.2652181,7.58578644 40,7.58578644 C39.7347819,7.58578644 39.4804266,7.48042835 39.29289,7.29289 L37.70711,5.70711 C37.5195734,5.51957165 37.2652181,5.41421356 37,5.41421356 C36.7347819,5.41421356 36.4804266,5.51957165 36.29289,5.70711 L34.70711,7.29289 C34.5195734,7.48042835 34.2652181,7.58578644 34,7.58578644 C33.7347819,7.58578644 33.4804266,7.48042835 33.29289,7.29289 L32.70711,6.70711 C32.4211132,6.42111057 31.9909955,6.33555292 31.6173203,6.49033248 C31.2436451,6.64511203 31.0000014,7.00974758 31,7.41421 Z" id="Shape" fill="#BDC3C7"/>
            <path d="M39,13 L35,13 C34.4477153,13 34,12.5522847 34,12 C34,11.4477153 34.4477153,11 35,11 L39,11 C39.5522847,11 40,11.4477153 40,12 C40,12.5522847 39.5522847,13 39,13 Z" id="Shape" fill="#35495E"/>
            <path d="M39,17 L35,17 C34.4477153,17 34,16.5522847 34,16 C34,15.4477153 34.4477153,15 35,15 L39,15 C39.5522847,15 40,15.4477153 40,16 C40,16.5522847 39.5522847,17 39,17 Z" id="Shape" fill="#35495E"/>
            <path d="M39,21 L35,21 C34.4477153,21 34,20.5522847 34,20 C34,19.4477153 34.4477153,19 35,19 L39,19 C39.5522847,19 40,19.4477153 40,20 C40,20.5522847 39.5522847,21 39,21 Z" id="Shape" fill="#35495E"/>
        </g>
    </g>
</svg>
