<?xml version="1.0" encoding="UTF-8"?>
<svg width="50px" height="59px" viewBox="0 0 50 59" version="1.1" xmlns="http://www.w3.org/2000/svg" xmlns:xlink="http://www.w3.org/1999/xlink">
    <!-- Generator: Sketch 51.1 (57501) - http://www.bohemiancoding.com/sketch -->
    <title>020 - Finance report</title>
    <desc>Created with Sketch.</desc>
    <defs></defs>
    <g id="Page-1" stroke="none" stroke-width="1" fill="none" fill-rule="evenodd">
        <g id="020---Finance-report">
            <path d="M10,59 L48,59 C49.1032019,58.9967052 49.9967052,58.1032019 50,57 L50,9 C49.9967052,7.89679813 49.1032019,7.0032948 48,7 L10,7 C8.89679813,7.0032948 8.0032948,7.89679813 8,9 L8,35 L10,59 Z" id="Shape" fill="#7F5B53" fill-rule="nonzero"></path>
            <path d="M40,55 L45,55 C45.5522847,55 46,54.5522847 46,54 L46,12 C46,11.4477153 45.5522847,11 45,11 L13,11 C12.4477153,11 12,11.4477153 12,12 L12,35 L40,55 Z" id="Shape" fill="#E6E7E8" fill-rule="nonzero"></path>
            <path d="M16,36 C15.4477153,36 15,35.5522847 15,35 L15,18 C15,17.4477153 15.4477153,17 16,17 C16.5522847,17 17,17.4477153 17,18 L17,35 C17,35.5522847 16.5522847,36 16,36 Z" id="Shape" fill="#5E5F62" fill-rule="nonzero"></path>
            <path d="M42,46 L40,46 C39.4477153,46 39,45.5522847 39,45 C39,44.4477153 39.4477153,44 40,44 L42,44 C42.5522847,44 43,44.4477153 43,45 C43,45.5522847 42.5522847,46 42,46 Z" id="Shape" fill="#5E5F62" fill-rule="nonzero"></path>
            <path d="M40,38 L40,27 C40,26.4477153 39.5522847,26 39,26 L37,26 C36.4477153,26 36,26.4477153 36,27 L36,35 L40,38 Z" id="Shape" fill="#C03A2B" fill-rule="nonzero"></path>
            <path d="M34,55 L13,55" id="Shape" stroke="#000000" stroke-width="2" stroke-linecap="round" stroke-linejoin="round"></path>
            <rect id="Rectangle-path" fill="#F3D55B" fill-rule="nonzero" x="18" y="5" width="22" height="8" rx="2"></rect>
            <path d="M33,6 C32.4477153,6 32,5.55228475 32,5 C32,3.34314575 30.6568542,2 29,2 C27.3431458,2 26,3.34314575 26,5 C26,5.55228475 25.5522847,6 25,6 C24.4477153,6 24,5.55228475 24,5 C24,2.23857625 26.2385763,-1.69088438e-16 29,0 C31.7614237,1.69088438e-16 34,2.23857625 34,5 C34,5.55228475 33.5522847,6 33,6 Z" id="Shape" fill="#805333" fill-rule="nonzero"></path>
            <path d="M24,10 L22,10 C21.4477153,10 21,9.55228475 21,9 C21,8.44771525 21.4477153,8 22,8 L24,8 C24.5522847,8 25,8.44771525 25,9 C25,9.55228475 24.5522847,10 24,10 Z" id="Shape" fill="#805333" fill-rule="nonzero"></path>
            <path d="M36,10 L28,10 C27.4477153,10 27,9.55228475 27,9 C27,8.44771525 27.4477153,8 28,8 L36,8 C36.5522847,8 37,8.44771525 37,9 C37,9.55228475 36.5522847,10 36,10 Z" id="Shape" fill="#805333" fill-rule="nonzero"></path>
            <path d="M21,18 L23,18 C23.5522847,18 24,18.4477153 24,19 L24,37 L20,37 L20,19 C20,18.4477153 20.4477153,18 21,18 Z" id="Shape" fill="#285680" fill-rule="nonzero"></path>
            <path d="M29,22 L31,22 C31.5522847,22 32,22.4477153 32,23 L32,37 L28,37 L28,23 C28,22.4477153 28.4477153,22 29,22 Z" id="Shape" fill="#DF4D60" fill-rule="nonzero"></path>
            <path d="M38,35 L2,35 C0.896798134,35.0032948 0.00329480111,35.8967981 0,37 L0,57 C0.00329480111,58.1032019 0.896798134,58.9967052 2,59 L38,59 C39.1032019,58.9967052 39.9967052,58.1032019 40,57 L40,37 C39.9967052,35.8967981 39.1032019,35.0032948 38,35 Z M6,55 C5.9967052,53.8967981 5.10320187,53.0032948 4,53 L6,55 Z" id="Shape" fill="#4C8056" fill-rule="nonzero"></path>
            <path d="M34,39 L6,39 C5.9967052,40.1032019 5.10320187,40.9967052 4,41 L4,53 C5.10320187,53.0032948 5.9967052,53.8967981 6,55 L34,55 C34.0032948,53.8967981 34.8967981,53.0032948 36,53 L36,41 C34.8967981,40.9967052 34.0032948,40.1032019 34,39 Z" id="Shape" fill="#71C285" fill-rule="nonzero"></path>
            <path d="M20,48 C19.0536315,48.014435 18.1236186,47.752391 17.324,47.246 C16.5070097,46.7938655 15.9999694,45.9337552 15.9999694,45 C15.9999694,44.0662448 16.5070097,43.2061345 17.324,42.754 C18.9753111,41.7809286 21.0246889,41.7809286 22.676,42.754 C23.1355009,43.060518 23.259518,43.6814991 22.953,44.141 C22.6464819,44.6005009 22.0255009,44.724518 21.566,44.418 C20.5895213,43.8869926 19.4104787,43.8869926 18.434,44.418 C18.1762396,44.4943579 17.9994094,44.7311675 17.9994094,45 C17.9994094,45.2688325 18.1762396,45.5056421 18.434,45.582 C18.9053756,45.8680123 19.4487946,46.0130628 20,46 C20.5522847,46 21,46.4477153 21,47 C21,47.5522847 20.5522847,48 20,48 Z" id="Shape" fill="#4C8056" fill-rule="nonzero"></path>
            <path d="M20,52 C19.0536315,52.014435 18.1236186,51.752391 17.324,51.246 C17.026755,51.0477176 16.8578717,50.7059188 16.8809668,50.3493559 C16.9040619,49.992793 17.1156267,49.6756364 17.4359668,49.5173559 C17.7563069,49.3590754 18.136755,49.3837176 18.434,49.582 C19.4104787,50.1130074 20.5895213,50.1130074 21.566,49.582 C21.8237604,49.5056421 22.0005906,49.2688325 22.0005906,49 C22.0005906,48.7311675 21.8237604,48.4943579 21.566,48.418 C21.0946244,48.1319877 20.5512054,47.9869372 20,48 C19.4477153,48 19,47.5522847 19,47 C19,46.4477153 19.4477153,46 20,46 C20.9463685,45.985565 21.8763814,46.247609 22.676,46.754 C23.4929903,47.2061345 24.0000306,48.0662448 24.0000306,49 C24.0000306,49.9337552 23.4929903,50.7938655 22.676,51.246 C21.8763814,51.752391 20.9463685,52.014435 20,52 Z" id="Shape" fill="#4C8056" fill-rule="nonzero"></path>
            <path d="M20,44 C19.4477153,44 19,43.5522847 19,43 L19,42 C19,41.4477153 19.4477153,41 20,41 C20.5522847,41 21,41.4477153 21,42 L21,43 C21,43.5522847 20.5522847,44 20,44 Z" id="Shape" fill="#4C8056" fill-rule="nonzero"></path>
            <path d="M20,53 C19.4477153,53 19,52.5522847 19,52 L19,51 C19,50.4477153 19.4477153,50 20,50 C20.5522847,50 21,50.4477153 21,51 L21,52 C21,52.5522847 20.5522847,53 20,53 Z" id="Shape" fill="#4C8056" fill-rule="nonzero"></path>
            <path d="M20,56 C16.3598398,56 13.0781132,53.8072204 11.6850842,50.4441509 C10.2920552,47.0810814 11.062057,43.2100209 13.636039,40.636039 C16.2100209,38.062057 20.0810814,37.2920552 23.4441509,38.6850842 C26.8072204,40.0781132 29,43.3598398 29,47 C28.9944889,51.9682782 24.9682782,55.9944889 20,56 Z M20,40 C16.1340068,40 13,43.1340068 13,47 C13,50.8659932 16.1340068,54 20,54 C23.8659932,54 27,50.8659932 27,47 C26.9955914,43.1358343 23.8641657,40.0044086 20,40 Z" id="Shape" fill="#4C8056" fill-rule="nonzero"></path>
        </g>
    </g>
</svg>