<?xml version="1.0" encoding="UTF-8" standalone="no"?>
<svg width="60px" height="54px" viewBox="0 0 60 54" version="1.1" xmlns="http://www.w3.org/2000/svg" xmlns:xlink="http://www.w3.org/1999/xlink">
    <!-- Generator: Sketch 40.1 (33804) - http://www.bohemiancoding.com/sketch -->
    <title>427 - Upload Picture (interaction, communication, interface, flat)</title>
    <desc>Created with Sketch.</desc>
    <defs></defs>
    <g id="Page-1" stroke="none" stroke-width="1" fill="none" fill-rule="evenodd">
        <g id="Icons" transform="translate(-480.000000, -1981.000000)">
            <g id="Upload-Picture" transform="translate(481.000000, 1982.000000)">
                <polygon id="Fill-519" fill="#EDF0F1" fill-rule="evenodd" points="0 0 55 0 55 42 0 42"></polygon>
                <polygon id="Stroke-520" stroke="#545E73" stroke-width="2" points="0 0 55 0 55 42 0 42"></polygon>
                <polygon id="Fill-521" fill="#545E73" fill-rule="evenodd" points="4 4 51 4 51 38 4 38"></polygon>
                <polygon id="Stroke-522" stroke="#EDF0F1" stroke-width="2" points="4 4 51 4 51 38 4 38"></polygon>
                <path d="M18.569,12.569 C18.569,15.093 16.523,17.138 14,17.138 C11.477,17.138 9.431,15.093 9.431,12.569 C9.431,10.046 11.477,8 14,8 C16.523,8 18.569,10.046 18.569,12.569" id="Fill-523" fill="#F4D65A" fill-rule="evenodd"></path>
                <polyline id="Fill-524" fill="#11A085" fill-rule="evenodd" points="50 28.111 49 27 37 16 26.5 27.5 36 37 50 37 50 28.111"></polyline>
                <polyline id="Fill-525" fill="#26B99A" fill-rule="evenodd" points="5 37 36 37 21.017 22.017 5 36 5 37"></polyline>
                <polygon id="Fill-2097" fill="#4AA0D8" fill-rule="evenodd" points="37 31 59 31 59 53 37 53"></polygon>
                <polygon id="Fill-2098" fill="#FFFFFF" fill-rule="evenodd" points="47 37 49 37 49 53 47 53"></polygon>
                <polyline id="Fill-2099" fill="#FFFFFF" fill-rule="evenodd" points="53.293 43.707 48 38.414 42.707 43.707 41.293 42.293 48 35.586 54.707 42.293 53.293 43.707"></polyline>
            </g>
        </g>
    </g>
</svg>