<?xml version="1.0" encoding="UTF-8"?>
<svg width="58px" height="58px" viewBox="0 0 58 58" version="1.1" xmlns="http://www.w3.org/2000/svg" xmlns:xlink="http://www.w3.org/1999/xlink">
    <!-- Generator: Sketch 51.3 (57544) - http://www.bohemiancoding.com/sketch -->
    <title>036 - Warehouse</title>
    <desc>Created with Sketch.</desc>
    <defs></defs>
    <g id="Page-1" stroke="none" stroke-width="1" fill="none" fill-rule="evenodd">
        <g id="036---Warehouse" fill-rule="nonzero">
            <path d="M10,58 L5.8,58 C2.59674845,58 6.21724894e-15,55.4032515 0,52.2 L0,20.3 C0.000692761894,17.7526641 1.33657827,15.3920937 3.52,14.08 L25.27,1.03 C27.5679692,-0.340003863 30.4320308,-0.340003863 32.73,1.03 L54.48,14.08 C56.6634217,15.3920937 57.9993072,17.7526641 58,20.3 L58,52.2 C58,55.4032515 55.4032515,58 52.2,58 L10,58 Z" id="Shape" fill="#3B97D3"></path>
            <path d="M36.569,9 C36.3881693,8.99993256 36.2107896,8.95048756 36.056,8.857 L30.156,5.317 C29.4418406,4.9022844 28.5601594,4.9022844 27.846,5.317 L21.946,8.857 C21.6393316,9.05342494 21.250125,9.0676027 20.9299778,8.89401099 C20.6098307,8.72041928 20.4093668,8.38650766 20.4066677,8.02233599 C20.4039686,7.65816431 20.5994611,7.321318 20.917,7.143 L26.817,3.603 C28.1668345,2.81402888 29.8371655,2.81402888 31.187,3.603 L37.087,7.143 C37.4724839,7.37478881 37.6557737,7.83542682 37.5349171,8.26869067 C37.4140606,8.70195452 37.0188026,9.0012098 36.569,9 Z" id="Shape" fill="#9FC9D3"></path>
            <rect id="Rectangle-path" fill="#464F5D" x="10" y="24" width="38" height="34"></rect>
            <rect id="Rectangle-path" fill="#ECF0F1" x="8" y="19" width="42" height="5" rx="1"></rect>
            <rect id="Rectangle-path" fill="#A56A43" x="15" y="44" width="14" height="14" rx="2"></rect>
            <rect id="Rectangle-path" fill="#CB8252" x="29" y="44" width="14" height="14" rx="2"></rect>
            <rect id="Rectangle-path" fill="#CF976A" x="22" y="30" width="14" height="14" rx="2"></rect>
            <path d="M32,30 L32,35 C31.9981085,35.3668574 31.7954896,35.7032263 31.4720769,35.8764086 C31.1486641,36.0495909 30.7563872,36.0317791 30.45,35.83 L29.55,35.24 C29.2194071,35.0099821 28.7805929,35.0099821 28.45,35.24 L27.55,35.83 C27.2436128,36.0317791 26.8513359,36.0495909 26.5279231,35.8764086 C26.2045104,35.7032263 26.0018915,35.3668574 26,35 L26,30 L32,30 Z" id="Shape" fill="#FAC176"></path>
            <path d="M25,44 L25,49 C24.9981085,49.3668574 24.7954896,49.7032263 24.4720769,49.8764086 C24.1486641,50.0495909 23.7563872,50.0317791 23.45,49.83 L22.55,49.24 C22.2194071,49.0099821 21.7805929,49.0099821 21.45,49.24 L20.55,49.83 C20.2436128,50.0317791 19.8513359,50.0495909 19.5279231,49.8764086 C19.2045104,49.7032263 19.0018915,49.3668574 19,49 L19,44 L25,44 Z" id="Shape" fill="#FAC176"></path>
            <path d="M39,44 L39,49 C38.9981085,49.3668574 38.7954896,49.7032263 38.4720769,49.8764086 C38.1486641,50.0495909 37.7563872,50.0317791 37.45,49.83 L36.55,49.24 C36.2194071,49.0099821 35.7805929,49.0099821 35.45,49.24 L34.55,49.83 C34.2436128,50.0317791 33.8513359,50.0495909 33.5279231,49.8764086 C33.2045104,49.7032263 33.0018915,49.3668574 33,49 L33,44 L39,44 Z" id="Shape" fill="#FAC176"></path>
        </g>
    </g>
</svg>